M48
;Layer_Color=9474304
;FILE_FORMAT=4:3
METRIC,TZ
;TYPE=NON_PLATED
T13F00S00C1.700
%
G90
G05
T13
G00X13823Y14850
M15
G01Y14750
M16
G00X13823Y23350
M15
G01Y23250
M16
G00X13823Y43298
M15
G01Y43198
M16
G00X13823Y51798
M15
G01Y51698
M16
G00X13823Y69206
M15
G01Y69106
M16
G00X13823Y77706
M15
G01Y77606
M16
G00X13823Y98670
M15
G01Y98570
M16
G00X13823Y107170
M15
G01Y107070
M16
G00X13823Y124502
M15
G01Y124402
M16
G00X13823Y133002
M15
G01Y132902
M16
G00X13823Y152188
M15
G01Y152088
M16
G00X13823Y160688
M15
G01Y160588
M16
G00X13823Y177207
M15
G01Y177107
M16
G00X13823Y185707
M15
G01Y185607
M16
G00X13823Y204512
M15
G01Y204412
M16
G00X13823Y213012
M15
G01Y212912
M16
M30
