M48
;Layer_Color=9474304
;FILE_FORMAT=4:3
METRIC,TZ
;TYPE=PLATED
T02F00S00C0.600
T06F00S00C1.000
T09F00S00C1.300
T10F00S00C1.800
%
G90
G05
T02
G00X149845Y234284
M15
G01Y233584
M16
G00X156845Y234284
M15
G01Y233584
M16
T06
G00X20823Y19050
M15
G01X22123
M16
G00X20823Y47498
M15
G01X22123
M16
G00X20823Y73406
M15
G01X22123
M16
G00X20823Y102870
M15
G01X22123
M16
G00X20823Y128702
M15
G01X22123
M16
G00X20823Y156388
M15
G01X22123
M16
G00X20823Y181407
M15
G01X22123
M16
G00X20823Y208712
M15
G01X22123
M16
T09
G00X16973Y20100
M15
G01Y18000
M16
G00X16973Y48548
M15
G01Y46448
M16
G00X16973Y74456
M15
G01Y72356
M16
G00X16973Y103920
M15
G01Y101820
M16
G00X16973Y129752
M15
G01Y127652
M16
G00X16973Y157438
M15
G01Y155338
M16
G00X16973Y182457
M15
G01Y180357
M16
G00X16973Y209762
M15
G01Y207662
M16
T10
G00X81081Y67355
M15
G01Y64755
M16
G00X92481Y67355
M15
G01Y64755
M16
M17
M30
