M48
;Layer_Color=9474304
;FILE_FORMAT=4:3
METRIC,TZ
;TYPE=PLATED
T01F00S00C0.300
T03F00S00C0.850
T04F00S00C0.900
T05F00S00C1.000
T07F00S00C1.050
T08F00S00C1.100
T11F00S00C3.500
%
T01
X22860Y37846
X29718Y39243
X65081Y35523
X72009Y31623
X74959Y32333
X67585Y24439
X55118Y24384
X100457Y69342
X77597Y69850
X74549Y79121
X69976Y75872
X70231Y75057
X53467Y78740
X44958Y66548
Y65151
X55118Y47625
X67186Y47595
X66421Y57150
X72644Y54864
X29972Y93980
X21971Y93599
X49022Y104394
X48928Y105426
X53594Y103124
X66040
X76327Y106172
X76454Y107442
X78740Y107696
X78486Y106426
X77597Y105410
X72614Y110964
X63500Y114808
Y90043
X64008Y80772
X71358Y80720
X72644Y80645
X73660Y79502
X71374Y82169
X72644Y85979
X85979Y90170
X81661Y115443
X81026Y116078
X80264Y116840
X91771Y115989
X101473Y117602
X101346Y112776
X100332Y112522
X99060Y110109
X105410Y107823
X109347Y107696
X109060Y105819
X107188Y105029
X108585Y103378
X109460Y111508
X106934Y113411
X105283Y115951
X105664Y116713
X106680Y118491
X117348Y112903
X118745Y110236
X126238Y108712
X123444Y116459
X124841Y121285
X123063Y130429
X121285Y129286
X121793Y135763
X123063
X120650Y136779
X125730Y137033
X122809Y157480
X138053Y152654
X116586Y136017
X115443
X114427
X112375Y138884
X110617Y139319
X110363Y138303
X107696Y136398
X107315Y135001
X107188Y133858
X104394Y134112
X99314Y133604
X100330Y127254
X101219Y126365
X99314Y125984
Y123952
Y122809
X93472Y121793
X91821Y120650
X89916Y124333
X90043Y125730
X87757Y124333
X92329Y127254
X91567Y128143
X92710Y128905
X89916Y134874
X89408Y135763
X112268Y129921
X110744Y122428
X112395Y120777
X114554Y120396
X115951Y121920
X117602Y122428
X66294Y134112
X53213
X49276Y139954
X48006Y139446
X46863Y126492
X48227Y124315
X48803Y122758
X45593Y122809
X63246Y145542
X61722Y156464
X53594
X71374Y153162
X70986Y152072
X74422Y150749
X73804Y149860
X72644Y141732
X35433Y145415
X25146Y143764
X24511Y123317
X26162Y175546
X31623Y172847
X32639Y193675
X24257Y198120
X63373Y197993
X69596Y193675
X66167Y186563
X53086
X49403Y163322
X49530Y159893
X63373Y167767
X69596Y164084
X81915Y191643
X133985Y163830
X84455Y212217
X82423Y212090
X71374Y213487
X69596Y215011
X71247Y221996
X63500Y220218
X66744Y208665
X52753Y208616
X18288Y221996
T03
X37846Y19320
Y21860
X41783Y21844
X49403
X50165Y45085
X42545
X41783Y76200
X49403
X36576
Y73660
X37846Y47641
Y45101
Y100584
Y103124
X42164Y100711
X49784
X48895Y131572
X41275
X43561Y153924
X51181
X37084
Y156464
X35560Y131572
Y129032
X36576Y181483
Y184023
X41148
X48768
X150845Y231234
X155845
X48768Y206121
X41148
X36068
Y208661
T04
X37592Y29734
Y37354
X40132
X42672
X45212
Y29734
X42672
X40132
X37592Y84074
Y91694
X40132
X42672
X45212
Y84074
X42672
X40132
X40259Y138684
X42799
X45339
Y146304
X42799
X40259
X37719
Y138684
X37211Y191008
X39751
X42291
X44831
Y198628
X42291
X39751
X37211
T05
X84281Y59055
X89281
Y73555
X86781
X84281
T07
X19558Y28464
X22098
X26670
X29210
X81788Y32893
X84328
X90043
X92583
X98298
X100838
X106553
X109093
X114808
X117348
X123063
X125603
X131318
X133858
X139573
X142113
X147828
X150368
X156083
X158623
X164338
X166878
X172593
X175133
X97282Y59944
Y62484
X29210Y57166
X26670
X22098
X19558
Y82804
X22098
X26670
X29210
X29464Y111887
X26924
X22098
X19558
X106680Y95377
Y92837
X129667Y115951
Y118491
X92153Y137378
X89613
X29210Y137922
X26670
X22098
X19558
Y165481
X22098
X26670
X29210
Y190627
X26670
X22098
X19558
Y217678
X22098
X26670
X29210
T08
X119431Y176682
X121971
Y232410
X119431
T11
X27573Y15842
X167623
Y225842
X27573
M30
