G04*
G04 #@! TF.GenerationSoftware,Altium Limited,Altium Designer,25.3.3 (18)*
G04*
G04 Layer_Color=16711935*
%FSLAX44Y44*%
%MOMM*%
G71*
G04*
G04 #@! TF.SameCoordinates,B03FB70F-F8BE-43E9-B780-EF2A816BF6E4*
G04*
G04*
G04 #@! TF.FilePolarity,Positive*
G04*
G01*
G75*
%ADD11C,0.2000*%
%ADD72C,0.1000*%
D11*
X859120Y1049620D02*
Y1251620D01*
Y1049620D02*
X1061120D01*
Y1251620D01*
X859120D02*
X1061120D01*
X1014720Y1374740D02*
Y1401440D01*
Y1374740D02*
X1146820D01*
Y1401440D01*
X1014720D02*
X1146820D01*
X979854Y1309000D02*
X1001854D01*
Y1294500D02*
Y1309000D01*
X979854Y1294500D02*
X1001854D01*
X979854D02*
Y1309000D01*
Y1286140D02*
X1001854D01*
Y1271640D02*
Y1286140D01*
X979854Y1271640D02*
X1001854D01*
X979854D02*
Y1286140D01*
X1212920Y1467750D02*
X1234920D01*
Y1453250D02*
Y1467750D01*
X1212920Y1453250D02*
X1234920D01*
X1212920D02*
Y1467750D01*
X726920Y811050D02*
X786920D01*
X726920Y751050D02*
Y811050D01*
Y751050D02*
X786920D01*
Y811050D01*
X413120Y246970D02*
Y268970D01*
X427620D01*
Y246970D02*
Y268970D01*
X413120Y246970D02*
X427620D01*
X454760Y227610D02*
X514760D01*
X454760D02*
Y287610D01*
X514760D01*
Y227610D02*
Y287610D01*
X395830Y2088670D02*
X410330D01*
Y2110670D01*
X395830D02*
X410330D01*
X395830Y2088670D02*
Y2110670D01*
X498630Y2070580D02*
Y2130580D01*
X438630D02*
X498630D01*
X438630Y2070580D02*
Y2130580D01*
Y2070580D02*
X498630D01*
X409310Y477750D02*
X423810D01*
Y499750D01*
X409310D02*
X423810D01*
X409310Y477750D02*
Y499750D01*
X451330Y460380D02*
X511330D01*
X451330D02*
Y520380D01*
X511330D01*
Y460380D02*
Y520380D01*
X438630Y771370D02*
X498630D01*
X438630D02*
Y831370D01*
X498630D01*
Y771370D02*
Y831370D01*
X396610Y1039290D02*
Y1061290D01*
X411110D01*
Y1039290D02*
Y1061290D01*
X396610Y1039290D02*
X411110D01*
X438630Y1020290D02*
X498630D01*
X438630D02*
Y1080290D01*
X498630D01*
Y1020290D02*
Y1080290D01*
X394070Y1868600D02*
X408570D01*
Y1890600D01*
X394070D02*
X408570D01*
X394070Y1868600D02*
Y1890600D01*
Y1345360D02*
X408570D01*
Y1367360D01*
X394070D02*
X408570D01*
X394070Y1345360D02*
Y1367360D01*
X497360Y1850870D02*
Y1910870D01*
X437360D02*
X497360D01*
X437360Y1850870D02*
Y1910870D01*
Y1850870D02*
X497360D01*
Y1551150D02*
Y1611150D01*
X437360D02*
X497360D01*
X437360Y1551150D02*
Y1611150D01*
Y1551150D02*
X497360D01*
X496090Y1326360D02*
Y1386360D01*
X436090D02*
X496090D01*
X436090Y1326360D02*
Y1386360D01*
Y1326360D02*
X496090D01*
X1256870Y1572630D02*
Y1587130D01*
X1234870D02*
X1256870D01*
X1234870Y1572630D02*
Y1587130D01*
Y1572630D02*
X1256870D01*
X832690Y1205600D02*
Y1220100D01*
X810690D02*
X832690D01*
X810690Y1205600D02*
Y1220100D01*
Y1205600D02*
X832690D01*
X1082410Y1127330D02*
X1096910D01*
X1082410Y1105330D02*
Y1127330D01*
Y1105330D02*
X1096910D01*
Y1127330D01*
X1045640Y993510D02*
Y1008010D01*
Y993510D02*
X1067640D01*
Y1008010D01*
X1045640D02*
X1067640D01*
X877410Y1012290D02*
Y1024790D01*
X857410D02*
X877410D01*
X857410Y1012290D02*
Y1024790D01*
Y1012290D02*
X877410D01*
X938900Y1025730D02*
X953400D01*
X938900Y1003730D02*
Y1025730D01*
Y1003730D02*
X953400D01*
Y1025730D01*
X1000330Y992240D02*
Y1006740D01*
X978330D02*
X1000330D01*
X978330Y992240D02*
Y1006740D01*
Y992240D02*
X1000330D01*
X1045640Y1016370D02*
Y1030870D01*
Y1016370D02*
X1067640D01*
Y1030870D01*
X1045640D02*
X1067640D01*
X1083994Y1256400D02*
Y1270900D01*
Y1256400D02*
X1105994D01*
Y1270900D01*
X1083994D02*
X1105994D01*
X1083994Y1277990D02*
Y1292490D01*
Y1277990D02*
X1105994D01*
Y1292490D01*
X1083994D02*
X1105994D01*
X698380Y1067470D02*
X746880D01*
Y1182970D01*
X698380D02*
X746880D01*
X698380Y1067470D02*
Y1182970D01*
X757290Y1119830D02*
X771790D01*
X757290Y1097830D02*
Y1119830D01*
Y1097830D02*
X771790D01*
Y1119830D01*
X757290Y1130610D02*
X771790D01*
Y1152610D01*
X757290D02*
X771790D01*
X757290Y1130610D02*
Y1152610D01*
X1000690Y1016370D02*
Y1030870D01*
X978690D02*
X1000690D01*
X978690Y1016370D02*
Y1030870D01*
Y1016370D02*
X1000690D01*
X823330Y1151050D02*
X837830D01*
Y1173050D01*
X823330D02*
X837830D01*
X823330Y1151050D02*
Y1173050D01*
X824600Y1114630D02*
X839100D01*
X824600Y1092630D02*
Y1114630D01*
Y1092630D02*
X839100D01*
Y1114630D01*
X770100Y709030D02*
Y723530D01*
X748100D02*
X770100D01*
X748100Y709030D02*
Y723530D01*
Y709030D02*
X770100D01*
X394070Y1570150D02*
X408570D01*
Y1592150D01*
X394070D02*
X408570D01*
X394070Y1570150D02*
Y1592150D01*
X452680Y147480D02*
X522680D01*
X452680D02*
Y198280D01*
X522680D01*
Y147480D02*
Y198280D01*
X437440Y934720D02*
X507440D01*
X437440D02*
Y985520D01*
X507440D01*
Y934720D02*
Y985520D01*
X437440Y690880D02*
X507440D01*
X437440D02*
Y741680D01*
X507440D01*
Y690880D02*
Y741680D01*
X395340Y790370D02*
X409840D01*
Y812370D01*
X395340D02*
X409840D01*
X395340Y790370D02*
Y812370D01*
X677080Y532630D02*
X807080D01*
X677080D02*
Y671630D01*
X807080D01*
Y532630D02*
Y671630D01*
X507440Y1990090D02*
Y2040890D01*
X437440D02*
X507440D01*
X437440Y1990090D02*
Y2040890D01*
Y1990090D02*
X507440D01*
X506170Y1769110D02*
Y1819910D01*
X436170D02*
X506170D01*
X436170Y1769110D02*
Y1819910D01*
Y1769110D02*
X506170D01*
X506530Y1468120D02*
Y1518920D01*
X436530D02*
X506530D01*
X436530Y1468120D02*
Y1518920D01*
Y1468120D02*
X506530D01*
X506170Y1244600D02*
Y1295400D01*
X436170D02*
X506170D01*
X436170Y1244600D02*
Y1295400D01*
Y1244600D02*
X506170D01*
X520500Y379890D02*
Y430690D01*
X450500D02*
X520500D01*
X450500Y379890D02*
Y430690D01*
Y379890D02*
X520500D01*
D72*
X812325Y1315360D02*
G03*
X812325Y1315360I-29225J0D01*
G01*
X876315Y553720D02*
G03*
X876315Y553720I-29225J0D01*
G01*
X734075Y270510D02*
G03*
X734075Y270510I-29225J0D01*
G01*
X816625D02*
G03*
X816625Y270510I-29225J0D01*
G01*
X899175D02*
G03*
X899175Y270510I-29225J0D01*
G01*
X981725D02*
G03*
X981725Y270510I-29225J0D01*
G01*
X1064275D02*
G03*
X1064275Y270510I-29225J0D01*
G01*
X1146825D02*
G03*
X1146825Y270510I-29225J0D01*
G01*
X1229375D02*
G03*
X1229375Y270510I-29225J0D01*
G01*
X1311925D02*
G03*
X1311925Y270510I-29225J0D01*
G01*
X1394475D02*
G03*
X1394475Y270510I-29225J0D01*
G01*
X1477025D02*
G03*
X1477025Y270510I-29225J0D01*
G01*
X1642125D02*
G03*
X1642125Y270510I-29225J0D01*
G01*
X1559575D02*
G03*
X1559575Y270510I-29225J0D01*
G01*
X1200165Y1113790D02*
G03*
X1200165Y1113790I-29225J0D01*
G01*
X970295Y882650D02*
G03*
X970295Y882650I-29225J0D01*
G01*
X252290Y250520D02*
G03*
X252290Y250520I-5000J0D01*
G01*
X111775Y2118360D02*
G03*
X111775Y2118360I-29225J0D01*
G01*
X182895Y1320800D02*
G03*
X182895Y1320800I-29225J0D01*
G01*
X111775D02*
G03*
X111775Y1320800I-29225J0D01*
G01*
Y226220D02*
G03*
X111775Y226220I-29225J0D01*
G01*
X182895D02*
G03*
X182895Y226220I-29225J0D01*
G01*
X185435Y1060450D02*
G03*
X185435Y1060450I-29225J0D01*
G01*
X111775D02*
G03*
X111775Y1060450I-29225J0D01*
G01*
Y513240D02*
G03*
X111775Y513240I-29225J0D01*
G01*
X182895D02*
G03*
X182895Y513240I-29225J0D01*
G01*
X252290Y793920D02*
G03*
X252290Y793920I-5000J0D01*
G01*
X182895Y769620D02*
G03*
X182895Y769620I-29225J0D01*
G01*
X111775D02*
G03*
X111775Y769620I-29225J0D01*
G01*
X253560Y1340020D02*
G03*
X253560Y1340020I-5000J0D01*
G01*
X182895Y2118360D02*
G03*
X182895Y2118360I-29225J0D01*
G01*
Y1847850D02*
G03*
X182895Y1847850I-29225J0D01*
G01*
X111775D02*
G03*
X111775Y1847850I-29225J0D01*
G01*
X182895Y1596390D02*
G03*
X182895Y1596390I-29225J0D01*
G01*
X111775D02*
G03*
X111775Y1596390I-29225J0D01*
G01*
X248480Y1863260D02*
G03*
X248480Y1863260I-5000J0D01*
G01*
X1370267Y2255420D02*
X1445820D01*
Y2295360D01*
X1370267Y2255420D02*
Y2295360D01*
X87230Y1905770D02*
Y1926770D01*
X100730Y1905770D02*
Y1926770D01*
X87230Y1905770D02*
X100730D01*
X87230Y1926770D02*
X100730D01*
X159620Y1905770D02*
Y1926770D01*
X173120Y1905770D02*
Y1926770D01*
X159620Y1905770D02*
X173120D01*
X159620Y1926770D02*
X173120D01*
X88500Y2171200D02*
Y2192200D01*
X102000Y2171200D02*
Y2192200D01*
X88500Y2171200D02*
X102000D01*
X88500Y2192200D02*
X102000D01*
X-91000Y1705648D02*
X104000D01*
X-91000D02*
Y1805648D01*
X104000D01*
Y1705648D02*
Y1805648D01*
Y1978698D02*
Y2078698D01*
X-91000D02*
X104000D01*
X-91000Y1978698D02*
Y2078698D01*
Y1978698D02*
X104000D01*
X-91000Y1455458D02*
X104000D01*
X-91000D02*
Y1555458D01*
X104000D01*
Y1455458D02*
Y1555458D01*
X-91000Y1178598D02*
X104000D01*
X-91000D02*
Y1278598D01*
X104000D01*
Y1178598D02*
Y1278598D01*
X-91000Y366560D02*
X104000D01*
X-91000D02*
Y466560D01*
X104000D01*
Y366560D02*
Y466560D01*
Y920280D02*
Y1020280D01*
X-91000D02*
X104000D01*
X-91000Y920280D02*
Y1020280D01*
Y920280D02*
X104000D01*
Y625640D02*
Y725640D01*
X-91000D02*
X104000D01*
X-91000Y625640D02*
Y725640D01*
Y625640D02*
X104000D01*
Y82080D02*
Y182080D01*
X-91000D02*
X104000D01*
X-91000Y82080D02*
Y182080D01*
Y82080D02*
X104000D01*
X835320Y1322470D02*
X856320D01*
X835320Y1308970D02*
X856320D01*
X835320D02*
Y1322470D01*
X856320Y1308970D02*
Y1322470D01*
X554650Y483630D02*
X575650D01*
X554650Y497130D02*
X575650D01*
Y483630D02*
Y497130D01*
X554650Y483630D02*
Y497130D01*
X706890Y875430D02*
X727890D01*
X706890Y861930D02*
X727890D01*
X706890D02*
Y875430D01*
X727890Y861930D02*
Y875430D01*
X552110Y251220D02*
Y264720D01*
X573110Y251220D02*
Y264720D01*
X552110D02*
X573110D01*
X552110Y251220D02*
X573110D01*
X535600Y1874120D02*
X556600D01*
X535600Y1887620D02*
X556600D01*
Y1874120D02*
Y1887620D01*
X535600Y1874120D02*
Y1887620D01*
Y2095100D02*
X556600D01*
X535600Y2108600D02*
X556600D01*
Y2095100D02*
Y2108600D01*
X535600Y2095100D02*
Y2108600D01*
Y794620D02*
Y808120D01*
X556600Y794620D02*
Y808120D01*
X535600D02*
X556600D01*
X535600Y794620D02*
X556600D01*
X535600Y1044810D02*
Y1058310D01*
X556600Y1044810D02*
Y1058310D01*
X535600D02*
X556600D01*
X535600Y1044810D02*
X556600D01*
X534170Y1575670D02*
X555170D01*
X534170Y1589170D02*
X555170D01*
Y1575670D02*
Y1589170D01*
X534170Y1575670D02*
Y1589170D01*
X534330Y1352150D02*
X555330D01*
X534330Y1365650D02*
X555330D01*
Y1352150D02*
Y1365650D01*
X534330Y1352150D02*
Y1365650D01*
X709530Y382610D02*
X723030D01*
X709530Y361610D02*
X723030D01*
Y382610D01*
X709530Y361610D02*
Y382610D01*
X794620D02*
X808120D01*
X794620Y361610D02*
X808120D01*
Y382610D01*
X794620Y361610D02*
Y382610D01*
X875900D02*
X889400D01*
X875900Y361610D02*
X889400D01*
Y382610D01*
X875900Y361610D02*
Y382610D01*
X957180D02*
X970680D01*
X957180Y361610D02*
X970680D01*
Y382610D01*
X957180Y361610D02*
Y382610D01*
X1041000D02*
X1054500D01*
X1041000Y361610D02*
X1054500D01*
Y382610D01*
X1041000Y361610D02*
Y382610D01*
X1122280D02*
X1135780D01*
X1122280Y361610D02*
X1135780D01*
Y382610D01*
X1122280Y361610D02*
Y382610D01*
X1206100Y361450D02*
Y382450D01*
X1219600Y361450D02*
Y382450D01*
X1206100Y361450D02*
X1219600D01*
X1206100Y382450D02*
X1219600D01*
X1288650Y361450D02*
Y382450D01*
X1302150Y361450D02*
Y382450D01*
X1288650Y361450D02*
X1302150D01*
X1288650Y382450D02*
X1302150D01*
X1371200Y361450D02*
Y382450D01*
X1384700Y361450D02*
Y382450D01*
X1371200Y361450D02*
X1384700D01*
X1371200Y382450D02*
X1384700D01*
X1453750Y361610D02*
Y382610D01*
X1467250Y361610D02*
Y382610D01*
X1453750Y361610D02*
X1467250D01*
X1453750Y382610D02*
X1467250D01*
X1536300Y361610D02*
Y382610D01*
X1549800Y361610D02*
Y382610D01*
X1536300Y361610D02*
X1549800D01*
X1536300Y382610D02*
X1549800D01*
X1618850Y361610D02*
Y382610D01*
X1632350Y361610D02*
Y382610D01*
X1618850Y361610D02*
X1632350D01*
X1618850Y382610D02*
X1632350D01*
X1244050Y1481610D02*
Y1548610D01*
X1207050Y1481610D02*
Y1548610D01*
Y1481610D02*
X1244050D01*
X1207050Y1548610D02*
X1244050D01*
X1128080Y1230230D02*
X1149080D01*
X1128080Y1243730D02*
X1149080D01*
Y1230230D02*
Y1243730D01*
X1128080Y1230230D02*
Y1243730D01*
X1162920Y1165520D02*
Y1186520D01*
X1176420Y1165520D02*
Y1186520D01*
X1162920Y1165520D02*
X1176420D01*
X1162920Y1186520D02*
X1176420D01*
X933050Y935650D02*
Y956650D01*
X946550Y935650D02*
Y956650D01*
X933050Y935650D02*
X946550D01*
X933050Y956650D02*
X946550D01*
X338290Y241520D02*
Y312520D01*
X238290Y241520D02*
Y312520D01*
X338290D01*
X238290Y241520D02*
X338290D01*
X1088710Y1043540D02*
X1109710D01*
X1088710Y1057040D02*
X1109710D01*
Y1043540D02*
Y1057040D01*
X1088710Y1043540D02*
Y1057040D01*
X1102680Y1166730D02*
Y1180230D01*
X1123680Y1166730D02*
Y1180230D01*
X1102680D02*
X1123680D01*
X1102680Y1166730D02*
X1123680D01*
X898230Y1270870D02*
Y1284370D01*
X877230Y1270870D02*
Y1284370D01*
Y1270870D02*
X898230D01*
X877230Y1284370D02*
X898230D01*
X848020Y616350D02*
X869020D01*
X848020Y602850D02*
X869020D01*
X848020D02*
Y616350D01*
X869020Y602850D02*
Y616350D01*
X440290Y130040D02*
X453790D01*
X440290Y109040D02*
X453790D01*
Y130040D01*
X440290Y109040D02*
Y130040D01*
X521570Y109200D02*
X535070D01*
X521570Y130200D02*
X535070D01*
X521570Y109200D02*
Y130200D01*
X535070Y109200D02*
Y130200D01*
X155810Y284300D02*
Y305300D01*
X169310Y284300D02*
Y305300D01*
X155810Y284300D02*
X169310D01*
X155810Y305300D02*
X169310D01*
X82150D02*
X95650D01*
X82150Y284300D02*
X95650D01*
Y305300D01*
X82150Y284300D02*
Y305300D01*
X103740Y1117260D02*
Y1138260D01*
X117240Y1117260D02*
Y1138260D01*
X103740Y1117260D02*
X117240D01*
X103740Y1138260D02*
X117240D01*
X162160Y1117100D02*
Y1138100D01*
X175660Y1117100D02*
Y1138100D01*
X162160Y1117100D02*
X175660D01*
X162160Y1138100D02*
X175660D01*
X519830Y898820D02*
Y919820D01*
X506330Y898820D02*
Y919820D01*
X519830D01*
X506330Y898820D02*
X519830D01*
X425050Y897390D02*
Y918390D01*
X438550Y897390D02*
Y918390D01*
X425050Y897390D02*
X438550D01*
X425050Y918390D02*
X438550D01*
X112630Y593430D02*
X126130D01*
X112630Y572430D02*
X126130D01*
Y593430D01*
X112630Y572430D02*
Y593430D01*
X158350Y593590D02*
X171850D01*
X158350Y572590D02*
X171850D01*
Y593590D01*
X158350Y572590D02*
Y593590D01*
X338290Y784920D02*
Y855920D01*
X238290Y784920D02*
Y855920D01*
X338290D01*
X238290Y784920D02*
X338290D01*
X160890Y828970D02*
Y849970D01*
X174390Y828970D02*
Y849970D01*
X160890Y828970D02*
X174390D01*
X160890Y849970D02*
X174390D01*
X425050Y653710D02*
Y674710D01*
X438550Y653710D02*
Y674710D01*
X425050Y653710D02*
X438550D01*
X425050Y674710D02*
X438550D01*
X506330Y653710D02*
X519830D01*
X506330Y674710D02*
X519830D01*
X506330Y653710D02*
Y674710D01*
X519830Y653710D02*
Y674710D01*
X88500Y828810D02*
Y849810D01*
X102000Y828810D02*
Y849810D01*
X88500Y828810D02*
X102000D01*
X88500Y849810D02*
X102000D01*
X1053578Y1677404D02*
Y1739404D01*
X1108978D01*
X1053578Y1677404D02*
X1108978D01*
Y1739404D01*
Y2234680D02*
Y2296680D01*
X1053578Y2234680D02*
X1108978D01*
X1053578Y2296680D02*
X1108978D01*
X1053578Y2234680D02*
Y2296680D01*
X425050Y1972650D02*
X438550D01*
X425050Y1951650D02*
X438550D01*
Y1972650D01*
X425050Y1951650D02*
Y1972650D01*
X339560Y1331020D02*
Y1402020D01*
X239560Y1331020D02*
Y1402020D01*
X339560D01*
X239560Y1331020D02*
X339560D01*
X505060Y1209970D02*
X518560D01*
X505060Y1230970D02*
X518560D01*
X505060Y1209970D02*
Y1230970D01*
X518560Y1209970D02*
Y1230970D01*
X190100Y2192200D02*
X203600D01*
X190100Y2171200D02*
X203600D01*
Y2192200D01*
X190100Y2171200D02*
Y2192200D01*
X159620Y1671500D02*
X173120D01*
X159620Y1650500D02*
X173120D01*
Y1671500D01*
X159620Y1650500D02*
Y1671500D01*
X110090Y1670550D02*
X123590D01*
X110090Y1649550D02*
X123590D01*
Y1670550D01*
X110090Y1649550D02*
Y1670550D01*
X160890Y1398610D02*
X174390D01*
X160890Y1377610D02*
X174390D01*
Y1398610D01*
X160890Y1377610D02*
Y1398610D01*
X88500Y1399880D02*
X102000D01*
X88500Y1378880D02*
X102000D01*
Y1399880D01*
X88500Y1378880D02*
Y1399880D01*
X234480Y1854260D02*
X334480D01*
X234480Y1925260D02*
X334480D01*
X234480Y1854260D02*
Y1925260D01*
X334480Y1854260D02*
Y1925260D01*
X423780Y1733210D02*
Y1754210D01*
X437280Y1733210D02*
Y1754210D01*
X423780Y1733210D02*
X437280D01*
X423780Y1754210D02*
X437280D01*
X423780Y1432220D02*
Y1453220D01*
X437280Y1432220D02*
Y1453220D01*
X423780Y1432220D02*
X437280D01*
X423780Y1453220D02*
X437280D01*
X423780Y1206160D02*
Y1227160D01*
X437280Y1206160D02*
Y1227160D01*
X423780Y1206160D02*
X437280D01*
X423780Y1227160D02*
X437280D01*
X437750Y342720D02*
Y363720D01*
X451250Y342720D02*
Y363720D01*
X437750Y342720D02*
X451250D01*
X437750Y363720D02*
X451250D01*
X519830Y1951650D02*
Y1972650D01*
X506330Y1951650D02*
Y1972650D01*
X519830D01*
X506330Y1951650D02*
X519830D01*
X518560Y1731940D02*
Y1752940D01*
X505060Y1731940D02*
Y1752940D01*
X518560D01*
X505060Y1731940D02*
X518560D01*
X519830Y1432220D02*
Y1453220D01*
X506330Y1432220D02*
Y1453220D01*
X519830D01*
X506330Y1432220D02*
X519830D01*
X533800Y342720D02*
Y363720D01*
X520300Y342720D02*
Y363720D01*
X533800D01*
X520300Y342720D02*
X533800D01*
M02*
