G04*
G04 #@! TF.GenerationSoftware,Altium Limited,Altium Designer,25.3.3 (18)*
G04*
G04 Layer_Physical_Order=2*
G04 Layer_Color=16711680*
%FSLAX44Y44*%
%MOMM*%
G71*
G04*
G04 #@! TF.SameCoordinates,B03FB70F-F8BE-43E9-B780-EF2A816BF6E4*
G04*
G04*
G04 #@! TF.FilePolarity,Positive*
G04*
G01*
G75*
%ADD14C,0.1651*%
%ADD57R,1.5500X1.5500*%
%ADD58C,1.5500*%
G04:AMPARAMS|DCode=59|XSize=2.4mm|YSize=5mm|CornerRadius=1.2mm|HoleSize=0mm|Usage=FLASHONLY|Rotation=180.000|XOffset=0mm|YOffset=0mm|HoleType=Round|Shape=RoundedRectangle|*
%AMROUNDEDRECTD59*
21,1,2.4000,2.6000,0,0,180.0*
21,1,0.0000,5.0000,0,0,180.0*
1,1,2.4000,0.0000,1.3000*
1,1,2.4000,0.0000,1.3000*
1,1,2.4000,0.0000,-1.3000*
1,1,2.4000,0.0000,-1.3000*
%
%ADD59ROUNDEDRECTD59*%
%ADD61C,0.6350*%
G04:AMPARAMS|DCode=62|XSize=1.524mm|YSize=0.762mm|CornerRadius=0mm|HoleSize=0mm|Usage=FLASHONLY|Rotation=270.000|XOffset=0mm|YOffset=0mm|HoleType=Round|Shape=RoundedRectangle|*
%AMROUNDEDRECTD62*
21,1,1.5240,0.7620,0,0,270.0*
21,1,1.5240,0.7620,0,0,270.0*
1,1,0.0000,-0.3810,-0.7620*
1,1,0.0000,-0.3810,0.7620*
1,1,0.0000,0.3810,0.7620*
1,1,0.0000,0.3810,-0.7620*
%
%ADD62ROUNDEDRECTD62*%
%ADD63C,1.4500*%
%ADD64O,1.8000X3.9000*%
%ADD65O,2.8000X1.5000*%
%ADD66C,1.5000*%
%ADD67R,1.5000X1.5000*%
%ADD68C,1.4000*%
%ADD69R,1.6000X1.6000*%
%ADD70C,1.6000*%
%ADD71C,0.6000*%
G36*
X1449070Y2159000D02*
X1611630Y2159000D01*
Y120650D01*
X55174D01*
X54359Y121580D01*
Y142580D01*
X54006Y145261D01*
X53340Y146868D01*
Y401772D01*
X54006Y403379D01*
X54359Y406060D01*
Y427060D01*
X54006Y429741D01*
X53340Y431348D01*
Y660852D01*
X54006Y662459D01*
X54359Y665140D01*
Y686140D01*
X54006Y688821D01*
X53340Y690428D01*
Y955492D01*
X54006Y957099D01*
X54359Y959780D01*
Y980780D01*
X54006Y983461D01*
X53340Y985068D01*
Y1213810D01*
X54006Y1215417D01*
X54359Y1218098D01*
Y1239098D01*
X54006Y1241779D01*
X53340Y1243386D01*
Y1490670D01*
X54006Y1492277D01*
X54359Y1494958D01*
Y1515958D01*
X54006Y1518639D01*
X53340Y1520246D01*
Y1740860D01*
X54006Y1742467D01*
X54359Y1745148D01*
Y1766148D01*
X54006Y1768829D01*
X53340Y1770436D01*
Y2013910D01*
X54006Y2015517D01*
X54359Y2018198D01*
Y2039198D01*
X54006Y2041879D01*
X53340Y2043486D01*
Y2157515D01*
X54610Y2158041D01*
X54731Y2157920D01*
X56301Y2157270D01*
X57999D01*
X59569Y2157920D01*
X60649Y2159000D01*
X583241D01*
X584321Y2157920D01*
X585891Y2157270D01*
X587589D01*
X589159Y2157920D01*
X590239Y2159000D01*
X939800D01*
X1064815Y2284015D01*
X1065490Y2283625D01*
X1067525Y2283080D01*
X1069631D01*
X1071666Y2283625D01*
X1073490Y2284678D01*
X1074980Y2286168D01*
X1076033Y2287992D01*
X1076578Y2290027D01*
Y2292133D01*
X1076450Y2292612D01*
X1077223Y2293620D01*
X1085333D01*
X1086106Y2292612D01*
X1085978Y2292133D01*
Y2290027D01*
X1086523Y2287992D01*
X1087576Y2286168D01*
X1089066Y2284678D01*
X1090890Y2283625D01*
X1092925Y2283080D01*
X1095031D01*
X1097066Y2283625D01*
X1098890Y2284678D01*
X1100380Y2286168D01*
X1101433Y2287992D01*
X1101978Y2290027D01*
Y2292133D01*
X1101850Y2292612D01*
X1102623Y2293620D01*
X1449070D01*
Y2159000D01*
D02*
G37*
%LPC*%
G36*
X1103248Y2274950D02*
X1084708D01*
Y2256410D01*
X1103248D01*
Y2274950D01*
D02*
G37*
G36*
X1069798D02*
X1067358D01*
X1065000Y2274318D01*
X1062886Y2273098D01*
X1061160Y2271372D01*
X1059940Y2269258D01*
X1059308Y2266900D01*
Y2264460D01*
X1059940Y2262102D01*
X1061160Y2259988D01*
X1062886Y2258262D01*
X1065000Y2257042D01*
X1067358Y2256410D01*
X1069798D01*
X1072156Y2257042D01*
X1074270Y2258262D01*
X1075996Y2259988D01*
X1077216Y2262102D01*
X1077848Y2264460D01*
Y2266900D01*
X1077216Y2269258D01*
X1075996Y2271372D01*
X1074270Y2273098D01*
X1072156Y2274318D01*
X1069798Y2274950D01*
D02*
G37*
G36*
X167558Y2127380D02*
X165182D01*
X162888Y2126765D01*
X160832Y2125578D01*
X159152Y2123898D01*
X157965Y2121842D01*
X157350Y2119547D01*
Y2117173D01*
X157965Y2114878D01*
X159152Y2112822D01*
X160832Y2111142D01*
X162888Y2109955D01*
X165182Y2109340D01*
X167558D01*
X169852Y2109955D01*
X171908Y2111142D01*
X173588Y2112822D01*
X174775Y2114878D01*
X175390Y2117173D01*
Y2119547D01*
X174775Y2121842D01*
X173588Y2123898D01*
X171908Y2125578D01*
X169852Y2126765D01*
X167558Y2127380D01*
D02*
G37*
G36*
X96438D02*
X94062D01*
X91768Y2126765D01*
X89712Y2125578D01*
X88032Y2123898D01*
X86845Y2121842D01*
X86230Y2119547D01*
Y2117173D01*
X86845Y2114878D01*
X88032Y2112822D01*
X89712Y2111142D01*
X91768Y2109955D01*
X94062Y2109340D01*
X96438D01*
X98732Y2109955D01*
X100788Y2111142D01*
X102468Y2112822D01*
X103655Y2114878D01*
X104270Y2117173D01*
Y2119547D01*
X103655Y2121842D01*
X102468Y2123898D01*
X100788Y2125578D01*
X98732Y2126765D01*
X96438Y2127380D01*
D02*
G37*
G36*
X363039Y2011060D02*
X360861D01*
X358758Y2010496D01*
X356872Y2009408D01*
X355332Y2007868D01*
X354244Y2005982D01*
X353680Y2003879D01*
Y2001701D01*
X354244Y1999598D01*
X355332Y1997712D01*
X356872Y1996172D01*
X358758Y1995084D01*
X360861Y1994520D01*
X363039D01*
X365142Y1995084D01*
X367028Y1996172D01*
X368568Y1997712D01*
X369656Y1999598D01*
X370220Y2001701D01*
Y2003879D01*
X369656Y2005982D01*
X368568Y2007868D01*
X367028Y2009408D01*
X365142Y2010496D01*
X363039Y2011060D01*
D02*
G37*
G36*
X286839D02*
X284661D01*
X282558Y2010496D01*
X280672Y2009408D01*
X279132Y2007868D01*
X278044Y2005982D01*
X277480Y2003879D01*
Y2001701D01*
X278044Y1999598D01*
X279132Y1997712D01*
X280672Y1996172D01*
X282558Y1995084D01*
X284661Y1994520D01*
X286839D01*
X288942Y1995084D01*
X290828Y1996172D01*
X292368Y1997712D01*
X293456Y1999598D01*
X294020Y2001701D01*
Y2003879D01*
X293456Y2005982D01*
X292368Y2007868D01*
X290828Y2009408D01*
X288942Y2010496D01*
X286839Y2011060D01*
D02*
G37*
G36*
X236039D02*
X233861D01*
X231758Y2010496D01*
X229872Y2009408D01*
X228332Y2007868D01*
X227244Y2005982D01*
X226680Y2003879D01*
Y2001701D01*
X227244Y1999598D01*
X228332Y1997712D01*
X229872Y1996172D01*
X231758Y1995084D01*
X233861Y1994520D01*
X236039D01*
X238142Y1995084D01*
X240028Y1996172D01*
X241568Y1997712D01*
X242656Y1999598D01*
X243220Y2001701D01*
Y2003879D01*
X242656Y2005982D01*
X241568Y2007868D01*
X240028Y2009408D01*
X238142Y2010496D01*
X236039Y2011060D01*
D02*
G37*
G36*
X323735Y1936630D02*
X321425D01*
X319195Y1936032D01*
X317195Y1934878D01*
X315562Y1933245D01*
X314408Y1931245D01*
X313810Y1929015D01*
Y1926705D01*
X314408Y1924475D01*
X315562Y1922475D01*
X317195Y1920842D01*
X319195Y1919688D01*
X321425Y1919090D01*
X323735D01*
X325965Y1919688D01*
X327965Y1920842D01*
X329598Y1922475D01*
X330752Y1924475D01*
X331350Y1926705D01*
Y1929015D01*
X330752Y1931245D01*
X329598Y1933245D01*
X327965Y1934878D01*
X325965Y1936032D01*
X323735Y1936630D01*
D02*
G37*
G36*
X298335D02*
X296025D01*
X293795Y1936032D01*
X291795Y1934878D01*
X290162Y1933245D01*
X289008Y1931245D01*
X288410Y1929015D01*
Y1926705D01*
X289008Y1924475D01*
X290162Y1922475D01*
X291795Y1920842D01*
X293795Y1919688D01*
X296025Y1919090D01*
X298335D01*
X300565Y1919688D01*
X302565Y1920842D01*
X304198Y1922475D01*
X305352Y1924475D01*
X305950Y1926705D01*
Y1929015D01*
X305352Y1931245D01*
X304198Y1933245D01*
X302565Y1934878D01*
X300565Y1936032D01*
X298335Y1936630D01*
D02*
G37*
G36*
X272935D02*
X270625D01*
X268395Y1936032D01*
X266395Y1934878D01*
X264762Y1933245D01*
X263608Y1931245D01*
X263010Y1929015D01*
Y1926705D01*
X263608Y1924475D01*
X264762Y1922475D01*
X266395Y1920842D01*
X268395Y1919688D01*
X270625Y1919090D01*
X272935D01*
X275165Y1919688D01*
X277165Y1920842D01*
X278798Y1922475D01*
X279952Y1924475D01*
X280550Y1926705D01*
Y1929015D01*
X279952Y1931245D01*
X278798Y1933245D01*
X277165Y1934878D01*
X275165Y1936032D01*
X272935Y1936630D01*
D02*
G37*
G36*
X247535D02*
X245225D01*
X242995Y1936032D01*
X240995Y1934878D01*
X239362Y1933245D01*
X238208Y1931245D01*
X237610Y1929015D01*
Y1926705D01*
X238208Y1924475D01*
X239362Y1922475D01*
X240995Y1920842D01*
X242995Y1919688D01*
X245225Y1919090D01*
X247535D01*
X249765Y1919688D01*
X251765Y1920842D01*
X253398Y1922475D01*
X254552Y1924475D01*
X255150Y1926705D01*
Y1929015D01*
X254552Y1931245D01*
X253398Y1933245D01*
X251765Y1934878D01*
X249765Y1936032D01*
X247535Y1936630D01*
D02*
G37*
G36*
X298335Y1860430D02*
X296025D01*
X293795Y1859832D01*
X291795Y1858678D01*
X290162Y1857045D01*
X289008Y1855045D01*
X288410Y1852815D01*
Y1850505D01*
X289008Y1848275D01*
X290162Y1846275D01*
X291795Y1844642D01*
X293795Y1843488D01*
X296025Y1842890D01*
X298335D01*
X300565Y1843488D01*
X302565Y1844642D01*
X304198Y1846275D01*
X305352Y1848275D01*
X305950Y1850505D01*
Y1852815D01*
X305352Y1855045D01*
X304198Y1857045D01*
X302565Y1858678D01*
X300565Y1859832D01*
X298335Y1860430D01*
D02*
G37*
G36*
X272935D02*
X270625D01*
X268395Y1859832D01*
X266395Y1858678D01*
X264762Y1857045D01*
X263608Y1855045D01*
X263010Y1852815D01*
Y1850505D01*
X263608Y1848275D01*
X264762Y1846275D01*
X266395Y1844642D01*
X268395Y1843488D01*
X270625Y1842890D01*
X272935D01*
X275165Y1843488D01*
X277165Y1844642D01*
X278798Y1846275D01*
X279952Y1848275D01*
X280550Y1850505D01*
Y1852815D01*
X279952Y1855045D01*
X278798Y1857045D01*
X277165Y1858678D01*
X275165Y1859832D01*
X272935Y1860430D01*
D02*
G37*
G36*
X255150D02*
X237610D01*
Y1842890D01*
X255150D01*
Y1860430D01*
D02*
G37*
G36*
X167558Y1856870D02*
X165182D01*
X162888Y1856255D01*
X160832Y1855068D01*
X159152Y1853388D01*
X157965Y1851332D01*
X157350Y1849037D01*
Y1846662D01*
X157965Y1844368D01*
X159152Y1842312D01*
X160832Y1840632D01*
X162888Y1839445D01*
X165182Y1838830D01*
X167558D01*
X169852Y1839445D01*
X171908Y1840632D01*
X173588Y1842312D01*
X174775Y1844368D01*
X175390Y1846662D01*
Y1849037D01*
X174775Y1851332D01*
X173588Y1853388D01*
X171908Y1855068D01*
X169852Y1856255D01*
X167558Y1856870D01*
D02*
G37*
G36*
X96438D02*
X94062D01*
X91768Y1856255D01*
X89712Y1855068D01*
X88032Y1853388D01*
X86845Y1851332D01*
X86230Y1849037D01*
Y1846662D01*
X86845Y1844368D01*
X88032Y1842312D01*
X89712Y1840632D01*
X91768Y1839445D01*
X94062Y1838830D01*
X96438D01*
X98732Y1839445D01*
X100788Y1840632D01*
X102468Y1842312D01*
X103655Y1844368D01*
X104270Y1846662D01*
Y1849037D01*
X103655Y1851332D01*
X102468Y1853388D01*
X100788Y1855068D01*
X98732Y1856255D01*
X96438Y1856870D01*
D02*
G37*
G36*
X363039Y1790080D02*
X360861D01*
X358758Y1789516D01*
X356872Y1788428D01*
X355332Y1786888D01*
X354244Y1785002D01*
X353680Y1782899D01*
Y1780721D01*
X354244Y1778618D01*
X355332Y1776732D01*
X356872Y1775192D01*
X358758Y1774104D01*
X360861Y1773540D01*
X363039D01*
X365142Y1774104D01*
X367028Y1775192D01*
X368568Y1776732D01*
X369656Y1778618D01*
X370220Y1780721D01*
Y1782899D01*
X369656Y1785002D01*
X368568Y1786888D01*
X367028Y1788428D01*
X365142Y1789516D01*
X363039Y1790080D01*
D02*
G37*
G36*
X201509Y1882600D02*
X199811D01*
X198241Y1881950D01*
X197040Y1880749D01*
X196390Y1879179D01*
Y1877481D01*
X197040Y1875911D01*
X198241Y1874710D01*
X198524Y1874593D01*
Y1852510D01*
X198686Y1851693D01*
X199149Y1851000D01*
X578460Y1471689D01*
X579153Y1471226D01*
X579970Y1471064D01*
X584273D01*
X584390Y1470781D01*
X585591Y1469580D01*
X587161Y1468930D01*
X588859D01*
X590429Y1469580D01*
X591630Y1470781D01*
X592280Y1472351D01*
Y1474049D01*
X591630Y1475619D01*
X590429Y1476820D01*
X588859Y1477470D01*
X587161D01*
X585591Y1476820D01*
X584390Y1475619D01*
X584273Y1475336D01*
X580855D01*
X283713Y1772479D01*
X284370Y1773618D01*
X284661Y1773540D01*
X286839D01*
X288942Y1774104D01*
X290828Y1775192D01*
X292368Y1776732D01*
X293456Y1778618D01*
X294020Y1780721D01*
Y1782899D01*
X293456Y1785002D01*
X292368Y1786888D01*
X290828Y1788428D01*
X288942Y1789516D01*
X286839Y1790080D01*
X284661D01*
X282558Y1789516D01*
X280672Y1788428D01*
X279132Y1786888D01*
X278044Y1785002D01*
X277480Y1782899D01*
Y1780721D01*
X277558Y1780430D01*
X276419Y1779772D01*
X202796Y1853395D01*
Y1874593D01*
X203079Y1874710D01*
X204280Y1875911D01*
X204930Y1877481D01*
Y1879179D01*
X204280Y1880749D01*
X203079Y1881950D01*
X201509Y1882600D01*
D02*
G37*
G36*
X241119Y1790080D02*
X238941D01*
X236838Y1789516D01*
X234952Y1788428D01*
X233412Y1786888D01*
X232324Y1785002D01*
X231760Y1782899D01*
Y1780721D01*
X232324Y1778618D01*
X233412Y1776732D01*
X234952Y1775192D01*
X236838Y1774104D01*
X238941Y1773540D01*
X241119D01*
X243222Y1774104D01*
X245108Y1775192D01*
X246648Y1776732D01*
X247736Y1778618D01*
X248300Y1780721D01*
Y1782899D01*
X247736Y1785002D01*
X246648Y1786888D01*
X245108Y1788428D01*
X243222Y1789516D01*
X241119Y1790080D01*
D02*
G37*
G36*
X1095198Y1717674D02*
X1092758D01*
X1090400Y1717042D01*
X1088286Y1715822D01*
X1086560Y1714096D01*
X1085340Y1711982D01*
X1084708Y1709624D01*
Y1707184D01*
X1085340Y1704826D01*
X1086560Y1702712D01*
X1088286Y1700986D01*
X1090400Y1699766D01*
X1092758Y1699134D01*
X1095198D01*
X1097556Y1699766D01*
X1099670Y1700986D01*
X1101396Y1702712D01*
X1102616Y1704826D01*
X1103248Y1707184D01*
Y1709624D01*
X1102616Y1711982D01*
X1101396Y1714096D01*
X1099670Y1715822D01*
X1097556Y1717042D01*
X1095198Y1717674D01*
D02*
G37*
G36*
X1095031Y1691004D02*
X1092925D01*
X1090890Y1690459D01*
X1089066Y1689406D01*
X1087576Y1687916D01*
X1086523Y1686092D01*
X1085978Y1684057D01*
Y1681951D01*
X1086523Y1679916D01*
X1087576Y1678092D01*
X1089066Y1676602D01*
X1090890Y1675549D01*
X1092925Y1675004D01*
X1095031D01*
X1097066Y1675549D01*
X1098890Y1676602D01*
X1100380Y1678092D01*
X1101433Y1679916D01*
X1101978Y1681951D01*
Y1684057D01*
X1101433Y1686092D01*
X1100380Y1687916D01*
X1098890Y1689406D01*
X1097066Y1690459D01*
X1095031Y1691004D01*
D02*
G37*
G36*
X1069631D02*
X1067525D01*
X1065490Y1690459D01*
X1063666Y1689406D01*
X1062176Y1687916D01*
X1061123Y1686092D01*
X1060578Y1684057D01*
Y1681951D01*
X1061123Y1679916D01*
X1062176Y1678092D01*
X1063666Y1676602D01*
X1065490Y1675549D01*
X1067525Y1675004D01*
X1069631D01*
X1071666Y1675549D01*
X1073490Y1676602D01*
X1074980Y1678092D01*
X1076033Y1679916D01*
X1076578Y1681951D01*
Y1684057D01*
X1076033Y1686092D01*
X1074980Y1687916D01*
X1073490Y1689406D01*
X1071666Y1690459D01*
X1069631Y1691004D01*
D02*
G37*
G36*
X167558Y1605410D02*
X165182D01*
X162888Y1604795D01*
X160832Y1603608D01*
X159152Y1601928D01*
X157965Y1599872D01*
X157350Y1597578D01*
Y1595202D01*
X157965Y1592908D01*
X159152Y1590852D01*
X160832Y1589172D01*
X162888Y1587985D01*
X165182Y1587370D01*
X167558D01*
X169852Y1587985D01*
X171908Y1589172D01*
X173588Y1590852D01*
X174775Y1592908D01*
X175390Y1595202D01*
Y1597578D01*
X174775Y1599872D01*
X173588Y1601928D01*
X171908Y1603608D01*
X169852Y1604795D01*
X167558Y1605410D01*
D02*
G37*
G36*
X96438D02*
X94062D01*
X91768Y1604795D01*
X89712Y1603608D01*
X88032Y1601928D01*
X86845Y1599872D01*
X86230Y1597578D01*
Y1595202D01*
X86845Y1592908D01*
X88032Y1590852D01*
X89712Y1589172D01*
X91768Y1587985D01*
X94062Y1587370D01*
X96438D01*
X98732Y1587985D01*
X100788Y1589172D01*
X102468Y1590852D01*
X103655Y1592908D01*
X104270Y1595202D01*
Y1597578D01*
X103655Y1599872D01*
X102468Y1601928D01*
X100788Y1603608D01*
X98732Y1604795D01*
X96438Y1605410D01*
D02*
G37*
G36*
X136739Y1701310D02*
X135041D01*
X133471Y1700660D01*
X132270Y1699459D01*
X131620Y1697889D01*
Y1696191D01*
X132270Y1694621D01*
X133471Y1693420D01*
X135041Y1692770D01*
X136739D01*
X138309Y1693420D01*
X139510Y1694621D01*
X140020Y1695853D01*
X244225D01*
X364147Y1575932D01*
X364030Y1575649D01*
Y1573951D01*
X364680Y1572381D01*
X365881Y1571180D01*
X367451Y1570530D01*
X369149D01*
X370719Y1571180D01*
X371920Y1572381D01*
X372570Y1573951D01*
Y1575649D01*
X371920Y1577219D01*
X370719Y1578420D01*
X369149Y1579070D01*
X367451D01*
X367168Y1578953D01*
X246621Y1699501D01*
X245928Y1699964D01*
X245110Y1700126D01*
X138842D01*
X138309Y1700660D01*
X136739Y1701310D01*
D02*
G37*
G36*
X191349Y1674320D02*
X189651D01*
X188081Y1673670D01*
X186880Y1672469D01*
X186230Y1670899D01*
Y1669201D01*
X186880Y1667631D01*
X188081Y1666430D01*
X189651Y1665780D01*
X191349D01*
X192919Y1666430D01*
X194120Y1667631D01*
X194237Y1667914D01*
X239145D01*
X365417Y1541642D01*
X365300Y1541359D01*
Y1539661D01*
X365950Y1538091D01*
X367151Y1536890D01*
X368721Y1536240D01*
X370419D01*
X371989Y1536890D01*
X373190Y1538091D01*
X373840Y1539661D01*
Y1541359D01*
X373190Y1542929D01*
X371989Y1544130D01*
X370419Y1544780D01*
X368721D01*
X368438Y1544663D01*
X241541Y1671561D01*
X240848Y1672024D01*
X240030Y1672186D01*
X194237D01*
X194120Y1672469D01*
X192919Y1673670D01*
X191349Y1674320D01*
D02*
G37*
G36*
X387169Y1489090D02*
X384991D01*
X382888Y1488526D01*
X381002Y1487438D01*
X379462Y1485898D01*
X378374Y1484012D01*
X377810Y1481909D01*
Y1479731D01*
X378374Y1477628D01*
X379462Y1475742D01*
X381002Y1474202D01*
X382888Y1473114D01*
X384991Y1472550D01*
X387169D01*
X389272Y1473114D01*
X391158Y1474202D01*
X392698Y1475742D01*
X393786Y1477628D01*
X394350Y1479731D01*
Y1481909D01*
X393786Y1484012D01*
X392698Y1485898D01*
X391158Y1487438D01*
X389272Y1488526D01*
X387169Y1489090D01*
D02*
G37*
G36*
X310969D02*
X308791D01*
X306688Y1488526D01*
X304802Y1487438D01*
X303262Y1485898D01*
X302174Y1484012D01*
X301610Y1481909D01*
Y1479731D01*
X302174Y1477628D01*
X303262Y1475742D01*
X304802Y1474202D01*
X306688Y1473114D01*
X308791Y1472550D01*
X310969D01*
X313072Y1473114D01*
X314958Y1474202D01*
X316498Y1475742D01*
X317586Y1477628D01*
X318150Y1479731D01*
Y1481909D01*
X317586Y1484012D01*
X316498Y1485898D01*
X314958Y1487438D01*
X313072Y1488526D01*
X310969Y1489090D01*
D02*
G37*
G36*
X246199D02*
X244021D01*
X241918Y1488526D01*
X240032Y1487438D01*
X238492Y1485898D01*
X237404Y1484012D01*
X236840Y1481909D01*
Y1479731D01*
X237404Y1477628D01*
X238492Y1475742D01*
X240032Y1474202D01*
X241918Y1473114D01*
X244021Y1472550D01*
X246199D01*
X248302Y1473114D01*
X250188Y1474202D01*
X251728Y1475742D01*
X252816Y1477628D01*
X253380Y1479731D01*
Y1481909D01*
X252816Y1484012D01*
X251728Y1485898D01*
X250188Y1487438D01*
X248302Y1488526D01*
X246199Y1489090D01*
D02*
G37*
G36*
X117689Y1927050D02*
X115991D01*
X114421Y1926400D01*
X113220Y1925199D01*
X112570Y1923629D01*
Y1921931D01*
X113220Y1920361D01*
X114421Y1919160D01*
X115991Y1918510D01*
X117689D01*
X117972Y1918627D01*
X575069Y1461529D01*
X575762Y1461066D01*
X576580Y1460903D01*
X580084D01*
X580508Y1459881D01*
X581709Y1458680D01*
X583279Y1458029D01*
X584977D01*
X586547Y1458680D01*
X587748Y1459881D01*
X588398Y1461450D01*
Y1463149D01*
X587748Y1464718D01*
X586547Y1465919D01*
X584977Y1466570D01*
X583279D01*
X581709Y1465919D01*
X580966Y1465177D01*
X577465D01*
X120993Y1921648D01*
X121110Y1921931D01*
Y1923629D01*
X120460Y1925199D01*
X119259Y1926400D01*
X117689Y1927050D01*
D02*
G37*
G36*
X328815Y1413390D02*
X326505D01*
X324275Y1412792D01*
X322275Y1411638D01*
X320642Y1410005D01*
X319488Y1408005D01*
X318890Y1405775D01*
Y1403465D01*
X319488Y1401235D01*
X320642Y1399235D01*
X322275Y1397602D01*
X324275Y1396448D01*
X326505Y1395850D01*
X328815D01*
X331045Y1396448D01*
X333045Y1397602D01*
X334678Y1399235D01*
X335832Y1401235D01*
X336430Y1403465D01*
Y1405775D01*
X335832Y1408005D01*
X334678Y1410005D01*
X333045Y1411638D01*
X331045Y1412792D01*
X328815Y1413390D01*
D02*
G37*
G36*
X303415D02*
X301105D01*
X298875Y1412792D01*
X296875Y1411638D01*
X295242Y1410005D01*
X294088Y1408005D01*
X293490Y1405775D01*
Y1403465D01*
X294088Y1401235D01*
X295242Y1399235D01*
X296875Y1397602D01*
X298875Y1396448D01*
X301105Y1395850D01*
X303415D01*
X305645Y1396448D01*
X307645Y1397602D01*
X309278Y1399235D01*
X310432Y1401235D01*
X311030Y1403465D01*
Y1405775D01*
X310432Y1408005D01*
X309278Y1410005D01*
X307645Y1411638D01*
X305645Y1412792D01*
X303415Y1413390D01*
D02*
G37*
G36*
X278015D02*
X275705D01*
X273475Y1412792D01*
X271475Y1411638D01*
X269842Y1410005D01*
X268688Y1408005D01*
X268090Y1405775D01*
Y1403465D01*
X268688Y1401235D01*
X269842Y1399235D01*
X271475Y1397602D01*
X273475Y1396448D01*
X275705Y1395850D01*
X278015D01*
X280245Y1396448D01*
X282245Y1397602D01*
X283878Y1399235D01*
X285032Y1401235D01*
X285630Y1403465D01*
Y1405775D01*
X285032Y1408005D01*
X283878Y1410005D01*
X282245Y1411638D01*
X280245Y1412792D01*
X278015Y1413390D01*
D02*
G37*
G36*
X252615D02*
X250305D01*
X248075Y1412792D01*
X246075Y1411638D01*
X244442Y1410005D01*
X243288Y1408005D01*
X242690Y1405775D01*
Y1403465D01*
X243288Y1401235D01*
X244442Y1399235D01*
X246075Y1397602D01*
X248075Y1396448D01*
X250305Y1395850D01*
X252615D01*
X254845Y1396448D01*
X256845Y1397602D01*
X258478Y1399235D01*
X259632Y1401235D01*
X260230Y1403465D01*
Y1405775D01*
X259632Y1408005D01*
X258478Y1410005D01*
X256845Y1411638D01*
X254845Y1412792D01*
X252615Y1413390D01*
D02*
G37*
G36*
X229449Y1400000D02*
X227751D01*
X226181Y1399350D01*
X224980Y1398149D01*
X224330Y1396579D01*
Y1394881D01*
X224980Y1393311D01*
X226181Y1392110D01*
X227751Y1391460D01*
X229449D01*
X229732Y1391577D01*
X253759Y1367549D01*
X254452Y1367086D01*
X255270Y1366924D01*
X338205D01*
X362877Y1342252D01*
X362760Y1341969D01*
Y1340271D01*
X363410Y1338701D01*
X364611Y1337500D01*
X366181Y1336850D01*
X367879D01*
X369449Y1337500D01*
X370650Y1338701D01*
X371300Y1340271D01*
Y1341969D01*
X370650Y1343539D01*
X369449Y1344740D01*
X367879Y1345390D01*
X366181D01*
X365898Y1345273D01*
X340601Y1370571D01*
X339908Y1371034D01*
X339090Y1371196D01*
X256155D01*
X232753Y1394598D01*
X232870Y1394881D01*
Y1396579D01*
X232220Y1398149D01*
X231019Y1399350D01*
X229449Y1400000D01*
D02*
G37*
G36*
X126579Y1383490D02*
X124881D01*
X123311Y1382840D01*
X122110Y1381639D01*
X121460Y1380069D01*
Y1378371D01*
X122110Y1376801D01*
X123311Y1375600D01*
X124881Y1374950D01*
X126579D01*
X126862Y1375067D01*
X145809Y1356119D01*
X146502Y1355656D01*
X147320Y1355493D01*
X331855D01*
X350177Y1337172D01*
X350060Y1336889D01*
Y1335191D01*
X350710Y1333621D01*
X351911Y1332420D01*
X353481Y1331770D01*
X355179D01*
X356749Y1332420D01*
X357950Y1333621D01*
X358600Y1335191D01*
Y1336889D01*
X357950Y1338459D01*
X356749Y1339660D01*
X355179Y1340310D01*
X353481D01*
X353198Y1340193D01*
X334251Y1359141D01*
X333558Y1359604D01*
X332740Y1359767D01*
X148205D01*
X129883Y1378088D01*
X130000Y1378371D01*
Y1380069D01*
X129350Y1381639D01*
X128149Y1382840D01*
X126579Y1383490D01*
D02*
G37*
G36*
X303415Y1337190D02*
X301105D01*
X298875Y1336592D01*
X296875Y1335438D01*
X295242Y1333805D01*
X294088Y1331805D01*
X293490Y1329575D01*
Y1327265D01*
X294088Y1325035D01*
X295242Y1323035D01*
X296875Y1321402D01*
X298875Y1320248D01*
X301105Y1319650D01*
X303415D01*
X305645Y1320248D01*
X307645Y1321402D01*
X309278Y1323035D01*
X310432Y1325035D01*
X311030Y1327265D01*
Y1329575D01*
X310432Y1331805D01*
X309278Y1333805D01*
X307645Y1335438D01*
X305645Y1336592D01*
X303415Y1337190D01*
D02*
G37*
G36*
X278015D02*
X275705D01*
X273475Y1336592D01*
X271475Y1335438D01*
X269842Y1333805D01*
X268688Y1331805D01*
X268090Y1329575D01*
Y1327265D01*
X268688Y1325035D01*
X269842Y1323035D01*
X271475Y1321402D01*
X273475Y1320248D01*
X275705Y1319650D01*
X278015D01*
X280245Y1320248D01*
X282245Y1321402D01*
X283878Y1323035D01*
X285032Y1325035D01*
X285630Y1327265D01*
Y1329575D01*
X285032Y1331805D01*
X283878Y1333805D01*
X282245Y1335438D01*
X280245Y1336592D01*
X278015Y1337190D01*
D02*
G37*
G36*
X260230D02*
X242690D01*
Y1319650D01*
X260230D01*
Y1337190D01*
D02*
G37*
G36*
X167558Y1329820D02*
X165182D01*
X162888Y1329205D01*
X160832Y1328018D01*
X159152Y1326338D01*
X157965Y1324282D01*
X157350Y1321987D01*
Y1319612D01*
X157965Y1317318D01*
X159152Y1315262D01*
X160832Y1313582D01*
X162888Y1312395D01*
X165182Y1311780D01*
X167558D01*
X169852Y1312395D01*
X171908Y1313582D01*
X173588Y1315262D01*
X174775Y1317318D01*
X175390Y1319612D01*
Y1321987D01*
X174775Y1324282D01*
X173588Y1326338D01*
X171908Y1328018D01*
X169852Y1329205D01*
X167558Y1329820D01*
D02*
G37*
G36*
X96438D02*
X94062D01*
X91768Y1329205D01*
X89712Y1328018D01*
X88032Y1326338D01*
X86845Y1324282D01*
X86230Y1321987D01*
Y1319612D01*
X86845Y1317318D01*
X88032Y1315262D01*
X89712Y1313582D01*
X91768Y1312395D01*
X94062Y1311780D01*
X96438D01*
X98732Y1312395D01*
X100788Y1313582D01*
X102468Y1315262D01*
X103655Y1317318D01*
X104270Y1319612D01*
Y1321987D01*
X103655Y1324282D01*
X102468Y1326338D01*
X100788Y1328018D01*
X98732Y1329205D01*
X96438Y1329820D01*
D02*
G37*
G36*
X796988Y1324380D02*
X794613D01*
X792318Y1323765D01*
X790262Y1322578D01*
X788582Y1320898D01*
X787395Y1318842D01*
X786780Y1316548D01*
Y1314173D01*
X787395Y1311878D01*
X788582Y1309822D01*
X790262Y1308142D01*
X792318Y1306955D01*
X794613Y1306340D01*
X796988D01*
X799282Y1306955D01*
X801338Y1308142D01*
X803018Y1309822D01*
X804205Y1311878D01*
X804820Y1314173D01*
Y1316548D01*
X804205Y1318842D01*
X803018Y1320898D01*
X801338Y1322578D01*
X799282Y1323765D01*
X796988Y1324380D01*
D02*
G37*
G36*
X981289Y1339040D02*
X979591D01*
X978021Y1338390D01*
X976820Y1337189D01*
X976170Y1335619D01*
Y1333921D01*
X976820Y1332351D01*
X978021Y1331150D01*
X979591Y1330500D01*
X981289D01*
X981572Y1330617D01*
X996074Y1316114D01*
X996767Y1315651D01*
X997585Y1315488D01*
X1011940D01*
X1020490Y1306939D01*
X1019770Y1305862D01*
X1019389Y1306020D01*
X1017691D01*
X1016121Y1305370D01*
X1014920Y1304169D01*
X1014803Y1303887D01*
X1001645D01*
X982053Y1323478D01*
X982170Y1323761D01*
Y1325459D01*
X981520Y1327029D01*
X980319Y1328230D01*
X978749Y1328880D01*
X977051D01*
X975481Y1328230D01*
X974280Y1327029D01*
X973630Y1325459D01*
Y1323761D01*
X974280Y1322191D01*
X975481Y1320990D01*
X977051Y1320340D01*
X978749D01*
X979032Y1320457D01*
X999249Y1300239D01*
X999942Y1299776D01*
X1000760Y1299613D01*
X1014803D01*
X1014920Y1299331D01*
X1016121Y1298130D01*
X1017691Y1297480D01*
X1019389D01*
X1020959Y1298130D01*
X1022160Y1299331D01*
X1022810Y1300901D01*
Y1302599D01*
X1022737Y1302776D01*
X1023833Y1303447D01*
X1024471Y1302698D01*
X1024430Y1302599D01*
Y1300901D01*
X1025080Y1299331D01*
X1026281Y1298130D01*
X1027851Y1297480D01*
X1029549D01*
X1031119Y1298130D01*
X1032320Y1299331D01*
X1032970Y1300901D01*
Y1302599D01*
X1032320Y1304169D01*
X1032153Y1304335D01*
X1032570Y1305715D01*
X1033047Y1305811D01*
X1035977Y1302882D01*
X1035860Y1302599D01*
Y1300901D01*
X1036510Y1299331D01*
X1037711Y1298130D01*
X1039281Y1297480D01*
X1040979D01*
X1042549Y1298130D01*
X1043750Y1299331D01*
X1044400Y1300901D01*
Y1302599D01*
X1043750Y1304169D01*
X1042549Y1305370D01*
X1040979Y1306020D01*
X1039281D01*
X1038998Y1305903D01*
X1034930Y1309971D01*
X1034237Y1310435D01*
X1033419Y1310597D01*
X1028262D01*
X1006928Y1331932D01*
X1006235Y1332395D01*
X1005417Y1332557D01*
X1001762D01*
X1001645Y1332840D01*
X1000444Y1334041D01*
X998874Y1334691D01*
X997176D01*
X995606Y1334041D01*
X994405Y1332840D01*
X993755Y1331270D01*
Y1329572D01*
X994405Y1328002D01*
X995606Y1326801D01*
X997176Y1326151D01*
X998874D01*
X1000444Y1326801D01*
X1001645Y1328002D01*
X1001762Y1328284D01*
X1004532D01*
X1011785Y1321031D01*
X1011259Y1319762D01*
X998470D01*
X984593Y1333638D01*
X984710Y1333921D01*
Y1335619D01*
X984060Y1337189D01*
X982859Y1338390D01*
X981289Y1339040D01*
D02*
G37*
G36*
X952079Y1309830D02*
X950381D01*
X948811Y1309180D01*
X947610Y1307979D01*
X946960Y1306409D01*
Y1304711D01*
X947077Y1304428D01*
X943995Y1301346D01*
X772087D01*
X771970Y1301629D01*
X770769Y1302830D01*
X769199Y1303480D01*
X767501D01*
X765931Y1302830D01*
X764730Y1301629D01*
X764080Y1300059D01*
Y1298361D01*
X764730Y1296791D01*
X765931Y1295590D01*
X767501Y1294940D01*
X769199D01*
X770769Y1295590D01*
X771970Y1296791D01*
X772087Y1297074D01*
X944880D01*
X945698Y1297236D01*
X946391Y1297699D01*
X950098Y1301407D01*
X950381Y1301290D01*
X952079D01*
X953649Y1301940D01*
X954850Y1303141D01*
X955500Y1304711D01*
Y1306409D01*
X954850Y1307979D01*
X953649Y1309180D01*
X952079Y1309830D01*
D02*
G37*
G36*
X948269Y1295860D02*
X946571D01*
X945001Y1295210D01*
X943800Y1294009D01*
X943420Y1293091D01*
X776697D01*
X775849Y1293940D01*
X774279Y1294590D01*
X772581D01*
X771011Y1293940D01*
X769810Y1292739D01*
X769160Y1291169D01*
Y1289471D01*
X769810Y1287901D01*
X771011Y1286700D01*
X772581Y1286050D01*
X774279D01*
X775849Y1286700D01*
X777050Y1287901D01*
X777430Y1288819D01*
X944153D01*
X945001Y1287970D01*
X946571Y1287320D01*
X948269D01*
X949839Y1287970D01*
X951040Y1289171D01*
X951690Y1290741D01*
Y1292439D01*
X951040Y1294009D01*
X949839Y1295210D01*
X948269Y1295860D01*
D02*
G37*
G36*
X919059Y1286970D02*
X917361D01*
X915791Y1286320D01*
X914590Y1285119D01*
X913940Y1283549D01*
Y1281851D01*
X914590Y1280281D01*
X915791Y1279080D01*
X917361Y1278430D01*
X919059D01*
X920629Y1279080D01*
X921830Y1280281D01*
X921947Y1280564D01*
X941880D01*
Y1279311D01*
X942530Y1277741D01*
X943731Y1276540D01*
X945301Y1275890D01*
X946999D01*
X948569Y1276540D01*
X949770Y1277741D01*
X950420Y1279311D01*
Y1281009D01*
X949770Y1282579D01*
X948569Y1283780D01*
X946999Y1284430D01*
X945301D01*
X944616Y1284147D01*
X944552Y1284211D01*
X943859Y1284674D01*
X943041Y1284836D01*
X921947D01*
X921830Y1285119D01*
X920629Y1286320D01*
X919059Y1286970D01*
D02*
G37*
G36*
X364309Y1265570D02*
X362131D01*
X360028Y1265006D01*
X358142Y1263918D01*
X356602Y1262378D01*
X355514Y1260492D01*
X354950Y1258389D01*
Y1256211D01*
X355514Y1254108D01*
X356602Y1252222D01*
X358142Y1250682D01*
X360028Y1249594D01*
X362131Y1249030D01*
X364309D01*
X366412Y1249594D01*
X368298Y1250682D01*
X369838Y1252222D01*
X370926Y1254108D01*
X371490Y1256211D01*
Y1258389D01*
X370926Y1260492D01*
X369838Y1262378D01*
X368298Y1263918D01*
X366412Y1265006D01*
X364309Y1265570D01*
D02*
G37*
G36*
X288109D02*
X285931D01*
X283828Y1265006D01*
X281942Y1263918D01*
X280402Y1262378D01*
X279314Y1260492D01*
X278750Y1258389D01*
Y1256211D01*
X279314Y1254108D01*
X280402Y1252222D01*
X281942Y1250682D01*
X283828Y1249594D01*
X285931Y1249030D01*
X288109D01*
X290212Y1249594D01*
X292098Y1250682D01*
X293638Y1252222D01*
X294726Y1254108D01*
X295290Y1256211D01*
Y1258389D01*
X294726Y1260492D01*
X293638Y1262378D01*
X292098Y1263918D01*
X290212Y1265006D01*
X288109Y1265570D01*
D02*
G37*
G36*
X230959D02*
X228781D01*
X226678Y1265006D01*
X224792Y1263918D01*
X223252Y1262378D01*
X222164Y1260492D01*
X221600Y1258389D01*
Y1256211D01*
X222164Y1254108D01*
X223252Y1252222D01*
X224792Y1250682D01*
X226678Y1249594D01*
X228781Y1249030D01*
X230959D01*
X233062Y1249594D01*
X234948Y1250682D01*
X236488Y1252222D01*
X237576Y1254108D01*
X238140Y1256211D01*
Y1258389D01*
X237576Y1260492D01*
X236488Y1262378D01*
X234948Y1263918D01*
X233062Y1265006D01*
X230959Y1265570D01*
D02*
G37*
G36*
X570230Y2096222D02*
X568496Y2095877D01*
X567025Y2094895D01*
X566043Y2093424D01*
X565698Y2091690D01*
Y1878330D01*
Y1582420D01*
Y1546860D01*
X566043Y1545126D01*
X567025Y1543655D01*
X596178Y1514503D01*
Y1052157D01*
X596142Y1052069D01*
Y1050370D01*
X596178Y1050282D01*
Y266037D01*
X591155Y261015D01*
X590173Y259544D01*
X589828Y257810D01*
X590173Y256076D01*
X591155Y254605D01*
X592626Y253623D01*
X594360Y253278D01*
X596094Y253623D01*
X597565Y254605D01*
X603915Y260955D01*
X604897Y262426D01*
X605242Y264160D01*
X605242Y264160D01*
Y1511848D01*
X963208D01*
Y1369060D01*
Y1216256D01*
X881307D01*
X881190Y1216539D01*
X879989Y1217740D01*
X878419Y1218390D01*
X876721D01*
X875151Y1217740D01*
X873950Y1216539D01*
X873300Y1214969D01*
Y1214469D01*
X872030Y1213942D01*
X826445Y1259527D01*
X825752Y1259990D01*
X824934Y1260153D01*
X792649D01*
X620626Y1432175D01*
Y1445333D01*
X620909Y1445450D01*
X622110Y1446651D01*
X622760Y1448221D01*
Y1449919D01*
X622110Y1451489D01*
X620909Y1452690D01*
X619339Y1453340D01*
X617641D01*
X616071Y1452690D01*
X614870Y1451489D01*
X614220Y1449919D01*
Y1448221D01*
X614870Y1446651D01*
X616071Y1445450D01*
X616353Y1445333D01*
Y1443976D01*
X615084Y1443450D01*
X614734Y1443800D01*
X613164Y1444450D01*
X611466D01*
X609896Y1443800D01*
X608695Y1442599D01*
X608045Y1441029D01*
Y1439331D01*
X608695Y1437761D01*
X609896Y1436560D01*
X610178Y1436443D01*
Y1431115D01*
X610341Y1430297D01*
X610804Y1429604D01*
X787713Y1252696D01*
X788406Y1252232D01*
X789224Y1252070D01*
X822471D01*
X867581Y1206960D01*
X867055Y1205690D01*
X866561D01*
X864991Y1205040D01*
X863790Y1203839D01*
X863673Y1203557D01*
X806450D01*
X805632Y1203394D01*
X804939Y1202931D01*
X696069Y1094060D01*
X694992Y1094780D01*
X695150Y1095161D01*
Y1096859D01*
X694500Y1098429D01*
X693299Y1099630D01*
X693017Y1099747D01*
Y1101475D01*
X772298Y1180757D01*
X772581Y1180640D01*
X774279D01*
X775849Y1181290D01*
X777050Y1182491D01*
X777700Y1184061D01*
Y1185759D01*
X777050Y1187329D01*
X775849Y1188530D01*
X774279Y1189180D01*
X772581D01*
X771011Y1188530D01*
X769810Y1187329D01*
X769160Y1185759D01*
Y1184061D01*
X769277Y1183778D01*
X689745Y1104247D01*
X688501Y1104368D01*
X688264Y1104503D01*
X688150Y1104779D01*
X686949Y1105980D01*
X686666Y1106097D01*
Y1107825D01*
X773568Y1194727D01*
X773851Y1194610D01*
X775549D01*
X777119Y1195260D01*
X778320Y1196461D01*
X778970Y1198031D01*
Y1199729D01*
X778320Y1201299D01*
X777119Y1202500D01*
X775549Y1203150D01*
X773851D01*
X772281Y1202500D01*
X771080Y1201299D01*
X770430Y1199729D01*
Y1198031D01*
X770547Y1197748D01*
X757380Y1184582D01*
X756110Y1185108D01*
Y1185759D01*
X755460Y1187329D01*
X754259Y1188530D01*
X752689Y1189180D01*
X751076D01*
X750874Y1189410D01*
X750416Y1190317D01*
X780973Y1220873D01*
X786203D01*
X786320Y1220591D01*
X787521Y1219390D01*
X789091Y1218740D01*
X790789D01*
X792359Y1219390D01*
X793560Y1220591D01*
X794210Y1222161D01*
Y1223859D01*
X793560Y1225429D01*
X792359Y1226630D01*
X790789Y1227280D01*
X790926Y1228493D01*
X797633D01*
X797750Y1228211D01*
X798951Y1227010D01*
X800521Y1226360D01*
X802219D01*
X803789Y1227010D01*
X804990Y1228211D01*
X805640Y1229781D01*
Y1231479D01*
X804990Y1233049D01*
X803789Y1234250D01*
X802219Y1234900D01*
X800521D01*
X798951Y1234250D01*
X797750Y1233049D01*
X797633Y1232766D01*
X775970D01*
X775152Y1232604D01*
X774459Y1232141D01*
X609359Y1067041D01*
X608896Y1066348D01*
X608733Y1065530D01*
Y740337D01*
X608451Y740220D01*
X607250Y739019D01*
X606600Y737449D01*
Y735751D01*
X607250Y734181D01*
X608451Y732980D01*
X610021Y732330D01*
X611719D01*
X613289Y732980D01*
X614317Y734008D01*
X614988Y733797D01*
X615430Y733562D01*
X615490Y733522D01*
Y731941D01*
X616140Y730371D01*
X617341Y729170D01*
X618911Y728520D01*
X620609D01*
X622179Y729170D01*
X623380Y730371D01*
X624030Y731941D01*
Y733639D01*
X623380Y735209D01*
X622179Y736410D01*
X621897Y736527D01*
Y1061797D01*
X671503Y1111404D01*
X672410Y1110946D01*
X672640Y1110744D01*
Y1109131D01*
X673290Y1107561D01*
X674491Y1106360D01*
X676061Y1105710D01*
X677759D01*
X679329Y1106360D01*
X680530Y1107561D01*
X681180Y1109131D01*
Y1110829D01*
X681063Y1111112D01*
X750469Y1180518D01*
X751463Y1180348D01*
X751918Y1179119D01*
X683019Y1110221D01*
X682556Y1109528D01*
X682393Y1108710D01*
Y1106097D01*
X682111Y1105980D01*
X680910Y1104779D01*
X680260Y1103209D01*
Y1101511D01*
X680910Y1099941D01*
X682111Y1098740D01*
X683681Y1098090D01*
X685379D01*
X685821Y1098273D01*
X686793Y1097301D01*
X686610Y1096859D01*
Y1095161D01*
X687260Y1093591D01*
X688461Y1092390D01*
X690031Y1091740D01*
X691729D01*
X692110Y1091898D01*
X692830Y1090821D01*
X628409Y1026401D01*
X627946Y1025708D01*
X627784Y1024890D01*
Y660400D01*
X627946Y659582D01*
X628409Y658889D01*
X646087Y641212D01*
X645970Y640929D01*
Y639231D01*
X646620Y637661D01*
X647821Y636460D01*
X649391Y635810D01*
X651089D01*
X652659Y636460D01*
X653860Y637661D01*
X654510Y639231D01*
Y640929D01*
X653860Y642499D01*
X652659Y643700D01*
X651089Y644350D01*
X649391D01*
X649108Y644233D01*
X632057Y661285D01*
Y1002314D01*
X633270Y1002451D01*
X633920Y1000881D01*
X635121Y999680D01*
X636691Y999030D01*
X638389D01*
X639959Y999680D01*
X641160Y1000881D01*
X641810Y1002451D01*
Y1004149D01*
X641693Y1004432D01*
X656130Y1018868D01*
X657400Y1018342D01*
Y1017691D01*
X658050Y1016121D01*
X659251Y1014920D01*
X660821Y1014270D01*
X662519D01*
X662900Y1014428D01*
X663620Y1013351D01*
X660262Y1009993D01*
X659979Y1010110D01*
X658281D01*
X656711Y1009460D01*
X655510Y1008259D01*
X654860Y1006689D01*
Y1004991D01*
X655510Y1003421D01*
X656711Y1002220D01*
X658281Y1001570D01*
X659979D01*
X661549Y1002220D01*
X662750Y1003421D01*
X663400Y1004991D01*
Y1006689D01*
X663283Y1006972D01*
X680335Y1024024D01*
X767746D01*
X768272Y1022754D01*
X743335Y997816D01*
X653977D01*
X653860Y998099D01*
X652659Y999300D01*
X651089Y999950D01*
X649391D01*
X647821Y999300D01*
X646620Y998099D01*
X645970Y996529D01*
Y994831D01*
X646620Y993261D01*
X647821Y992060D01*
X649391Y991410D01*
X651089D01*
X652659Y992060D01*
X653860Y993261D01*
X653977Y993543D01*
X744220D01*
X745038Y993706D01*
X745731Y994169D01*
X830210Y1078649D01*
X972835D01*
X973653Y1078812D01*
X974346Y1079275D01*
X1035291Y1140219D01*
X1035754Y1140912D01*
X1035917Y1141730D01*
Y1157043D01*
X1036199Y1157160D01*
X1037400Y1158361D01*
X1038050Y1159931D01*
Y1161629D01*
X1037400Y1163199D01*
X1036199Y1164400D01*
X1034629Y1165050D01*
X1032931D01*
X1031361Y1164400D01*
X1030160Y1163199D01*
X1029510Y1161629D01*
Y1159931D01*
X1030160Y1158361D01*
X1031361Y1157160D01*
X1031644Y1157043D01*
Y1142615D01*
X971951Y1082922D01*
X962010D01*
X961484Y1084192D01*
X1018678Y1141387D01*
X1018961Y1141270D01*
X1020659D01*
X1022229Y1141920D01*
X1023430Y1143121D01*
X1024080Y1144691D01*
Y1146389D01*
X1023430Y1147959D01*
X1022229Y1149160D01*
X1020659Y1149810D01*
X1018961D01*
X1017391Y1149160D01*
X1016190Y1147959D01*
X1015540Y1146389D01*
Y1144691D01*
X1015657Y1144408D01*
X957965Y1086717D01*
X827732D01*
X826914Y1086554D01*
X826221Y1086091D01*
X768427Y1028297D01*
X701644D01*
X701118Y1029566D01*
X759893Y1088341D01*
X939348D01*
X940165Y1088504D01*
X940858Y1088967D01*
X997088Y1145197D01*
X997371Y1145080D01*
X999069D01*
X1000639Y1145730D01*
X1001840Y1146931D01*
X1002490Y1148501D01*
Y1150199D01*
X1001840Y1151769D01*
X1000639Y1152970D01*
X999069Y1153620D01*
X997371D01*
X996990Y1153462D01*
X996270Y1154539D01*
X1133081Y1291349D01*
X1133544Y1292042D01*
X1133707Y1292860D01*
Y1308173D01*
X1133989Y1308290D01*
X1135190Y1309491D01*
X1135840Y1311061D01*
Y1312759D01*
X1135190Y1314329D01*
X1133989Y1315530D01*
X1132419Y1316180D01*
X1130721D01*
X1129151Y1315530D01*
X1127950Y1314329D01*
X1127300Y1312759D01*
Y1311061D01*
X1127950Y1309491D01*
X1129151Y1308290D01*
X1129434Y1308173D01*
Y1293745D01*
X955425Y1119736D01*
X892737D01*
X892620Y1120019D01*
X891419Y1121220D01*
X889849Y1121870D01*
X888151D01*
X886581Y1121220D01*
X885380Y1120019D01*
X884730Y1118449D01*
Y1116751D01*
X885380Y1115181D01*
X886581Y1113980D01*
X888151Y1113330D01*
X889849D01*
X891419Y1113980D01*
X892620Y1115181D01*
X892737Y1115463D01*
X956310D01*
X957128Y1115626D01*
X957821Y1116089D01*
X993031Y1151300D01*
X994108Y1150580D01*
X993950Y1150199D01*
Y1148501D01*
X994067Y1148218D01*
X938463Y1092614D01*
X759007D01*
X758190Y1092451D01*
X757497Y1091988D01*
X697615Y1032106D01*
X671830D01*
X671012Y1031944D01*
X670980Y1031922D01*
X670170Y1032908D01*
X804795Y1167533D01*
X863673D01*
X863790Y1167251D01*
X864991Y1166050D01*
X866561Y1165400D01*
X868259D01*
X869829Y1166050D01*
X871030Y1167251D01*
X871680Y1168821D01*
Y1170519D01*
X871030Y1172089D01*
X869829Y1173290D01*
X868259Y1173940D01*
X866561D01*
X864991Y1173290D01*
X863790Y1172089D01*
X863673Y1171806D01*
X803910D01*
X803092Y1171644D01*
X802399Y1171181D01*
X638672Y1007453D01*
X638389Y1007570D01*
X636691D01*
X635121Y1006920D01*
X633920Y1005719D01*
X633270Y1004149D01*
X632057Y1004286D01*
Y1024005D01*
X807335Y1199284D01*
X863673D01*
X863790Y1199001D01*
X864991Y1197800D01*
X866561Y1197150D01*
X868259D01*
X869829Y1197800D01*
X871030Y1199001D01*
X871680Y1200571D01*
Y1201065D01*
X872950Y1201591D01*
X874164Y1200378D01*
Y1108867D01*
X874326Y1108050D01*
X874789Y1107356D01*
X882567Y1099579D01*
X883260Y1099116D01*
X884077Y1098953D01*
X923363D01*
X923480Y1098671D01*
X924681Y1097470D01*
X926251Y1096820D01*
X927949D01*
X929519Y1097470D01*
X930720Y1098671D01*
X931370Y1100241D01*
Y1101939D01*
X930860Y1103170D01*
X931312Y1104146D01*
X931585Y1104440D01*
X931759D01*
X933329Y1105090D01*
X934530Y1106291D01*
X935180Y1107861D01*
Y1109559D01*
X934530Y1111129D01*
X933329Y1112330D01*
X931759Y1112980D01*
X930061D01*
X928491Y1112330D01*
X927290Y1111129D01*
X927173Y1110846D01*
X886075D01*
X882246Y1114675D01*
Y1201609D01*
X883516Y1202135D01*
X884041Y1201610D01*
X885611Y1200960D01*
X887309D01*
X888879Y1201610D01*
X890080Y1202811D01*
X890197Y1203093D01*
X963208D01*
Y1155037D01*
X937865Y1129695D01*
X936883Y1128224D01*
X936538Y1126490D01*
X936883Y1124756D01*
X937865Y1123285D01*
X939336Y1122303D01*
X941070Y1121958D01*
X942804Y1122303D01*
X944275Y1123285D01*
X970945Y1149955D01*
X970945Y1149955D01*
X982468Y1161479D01*
X983444Y1161673D01*
X984915Y1162655D01*
X985897Y1164126D01*
X986242Y1165860D01*
X985897Y1167594D01*
X984915Y1169065D01*
X983444Y1170047D01*
X981710Y1170392D01*
X980440D01*
X980440Y1170392D01*
X978706Y1170047D01*
X977235Y1169065D01*
X977235Y1169065D01*
X973445Y1165275D01*
X972272Y1165761D01*
Y1205230D01*
Y1214120D01*
Y1364528D01*
X1083973D01*
X1088938Y1359563D01*
Y1302329D01*
X1088013Y1300944D01*
X1087668Y1299210D01*
X1088013Y1297476D01*
X1088995Y1296005D01*
X1090466Y1295023D01*
X1092200Y1294678D01*
X1093934Y1295023D01*
X1095405Y1296005D01*
X1096675Y1297275D01*
X1096675Y1297275D01*
X1097657Y1298746D01*
X1098002Y1300480D01*
X1098002Y1300480D01*
Y1361440D01*
X1097657Y1363174D01*
X1096675Y1364645D01*
X1089055Y1372265D01*
X1087584Y1373247D01*
X1085850Y1373592D01*
X972272D01*
Y1511848D01*
X1102360D01*
X1104094Y1512193D01*
X1105565Y1513175D01*
X1106547Y1514646D01*
X1106892Y1516380D01*
X1106547Y1518114D01*
X1105565Y1519585D01*
X1104094Y1520567D01*
X1102360Y1520912D01*
X602587D01*
X574762Y1548737D01*
Y1582420D01*
Y1878330D01*
Y2091690D01*
X574417Y2093424D01*
X573435Y2094895D01*
X571964Y2095877D01*
X570230Y2096222D01*
D02*
G37*
G36*
X343749Y1210770D02*
X342051D01*
X340481Y1210120D01*
X339280Y1208919D01*
X338630Y1207349D01*
Y1205651D01*
X339280Y1204081D01*
X340481Y1202880D01*
X342051Y1202230D01*
X343749D01*
X345319Y1202880D01*
X346520Y1204081D01*
X347170Y1205651D01*
Y1207349D01*
X346520Y1208919D01*
X345319Y1210120D01*
X343749Y1210770D01*
D02*
G37*
G36*
X357392Y1189005D02*
X355693D01*
X354124Y1188354D01*
X352923Y1187153D01*
X352806Y1186871D01*
X129365D01*
X128547Y1186708D01*
X127854Y1186245D01*
X120512Y1178903D01*
X120229Y1179020D01*
X118531D01*
X116961Y1178370D01*
X115760Y1177169D01*
X115110Y1175599D01*
Y1173901D01*
X115760Y1172331D01*
X116961Y1171130D01*
X118531Y1170480D01*
X120229D01*
X121799Y1171130D01*
X123000Y1172331D01*
X123650Y1173901D01*
Y1175599D01*
X123533Y1175882D01*
X130250Y1182598D01*
X352806D01*
X352923Y1182316D01*
X354124Y1181115D01*
X355693Y1180464D01*
X357392D01*
X358961Y1181115D01*
X360163Y1182316D01*
X360813Y1183885D01*
Y1185584D01*
X360163Y1187153D01*
X358961Y1188354D01*
X357392Y1189005D01*
D02*
G37*
G36*
X868259Y1185370D02*
X866561D01*
X864991Y1184720D01*
X863790Y1183519D01*
X863673Y1183236D01*
X803910D01*
X803092Y1183074D01*
X802399Y1182611D01*
X639942Y1020153D01*
X639659Y1020270D01*
X637961D01*
X636391Y1019620D01*
X635190Y1018419D01*
X634540Y1016849D01*
Y1015151D01*
X635190Y1013581D01*
X636391Y1012380D01*
X637961Y1011730D01*
X639659D01*
X641229Y1012380D01*
X642430Y1013581D01*
X643080Y1015151D01*
Y1016849D01*
X642963Y1017132D01*
X804795Y1178963D01*
X863673D01*
X863790Y1178681D01*
X864991Y1177480D01*
X866561Y1176830D01*
X868259D01*
X869829Y1177480D01*
X871030Y1178681D01*
X871680Y1180251D01*
Y1181949D01*
X871030Y1183519D01*
X869829Y1184720D01*
X868259Y1185370D01*
D02*
G37*
G36*
X331049Y1173940D02*
X329351D01*
X327781Y1173290D01*
X326580Y1172089D01*
X325930Y1170519D01*
Y1168821D01*
X326580Y1167251D01*
X327781Y1166050D01*
X329351Y1165400D01*
X331049D01*
X332619Y1166050D01*
X333820Y1167251D01*
X333937Y1167533D01*
X358350D01*
X358680Y1166738D01*
X359881Y1165537D01*
X361450Y1164886D01*
X363149D01*
X364718Y1165537D01*
X365920Y1166738D01*
X366570Y1168307D01*
Y1170006D01*
X365920Y1171575D01*
X364718Y1172776D01*
X363149Y1173427D01*
X361450D01*
X359881Y1172776D01*
X358911Y1171806D01*
X333937D01*
X333820Y1172089D01*
X332619Y1173290D01*
X331049Y1173940D01*
D02*
G37*
G36*
X1172128Y1135510D02*
X1169753D01*
X1167458Y1134895D01*
X1165402Y1133708D01*
X1163722Y1132028D01*
X1162535Y1129972D01*
X1161920Y1127678D01*
Y1125303D01*
X1162535Y1123008D01*
X1163722Y1120952D01*
X1165402Y1119272D01*
X1167458Y1118085D01*
X1169753Y1117470D01*
X1172128D01*
X1174422Y1118085D01*
X1176478Y1119272D01*
X1178158Y1120952D01*
X1179345Y1123008D01*
X1179960Y1125303D01*
Y1127678D01*
X1179345Y1129972D01*
X1178158Y1132028D01*
X1176478Y1133708D01*
X1174422Y1134895D01*
X1172128Y1135510D01*
D02*
G37*
G36*
X792480Y1150217D02*
X791662Y1150054D01*
X790969Y1149591D01*
X790506Y1148898D01*
X790343Y1148080D01*
Y1102793D01*
X790004Y1102284D01*
X789841Y1101467D01*
X790004Y1100649D01*
X790467Y1099956D01*
X791160Y1099493D01*
X791977Y1099330D01*
X792795Y1099493D01*
X793488Y1099956D01*
X793991Y1100459D01*
X794454Y1101152D01*
X794616Y1101969D01*
Y1148080D01*
X794454Y1148898D01*
X793991Y1149591D01*
X793298Y1150054D01*
X792480Y1150217D01*
D02*
G37*
G36*
X699349Y2066750D02*
X697651D01*
X696081Y2066100D01*
X694880Y2064899D01*
X694230Y2063329D01*
Y2061631D01*
X694880Y2060061D01*
X696081Y2058860D01*
X697651Y2058210D01*
X699349D01*
X699632Y2058327D01*
X727469Y2030489D01*
X728162Y2030026D01*
X728980Y2029863D01*
X851285D01*
X1270404Y1610745D01*
Y1357245D01*
X974702Y1061544D01*
X972900D01*
X972082Y1061381D01*
X971389Y1060918D01*
X970909Y1060438D01*
X969722Y1060930D01*
X969228D01*
X968701Y1062200D01*
X1238491Y1331989D01*
X1238954Y1332682D01*
X1239117Y1333500D01*
Y1598930D01*
X1238954Y1599748D01*
X1238491Y1600441D01*
X979411Y1859521D01*
X978718Y1859984D01*
X977900Y1860146D01*
X697157D01*
X697040Y1860429D01*
X695839Y1861630D01*
X694269Y1862280D01*
X692571D01*
X691001Y1861630D01*
X689800Y1860429D01*
X689150Y1858859D01*
Y1857161D01*
X689800Y1855591D01*
X691001Y1854390D01*
X692571Y1853740D01*
X694269D01*
X695839Y1854390D01*
X697040Y1855591D01*
X697157Y1855874D01*
X977015D01*
X1234844Y1598045D01*
Y1334385D01*
X926859Y1026401D01*
X926396Y1025708D01*
X926234Y1024890D01*
Y1023547D01*
X925951Y1023430D01*
X924750Y1022229D01*
X924100Y1020659D01*
Y1018961D01*
X924750Y1017391D01*
X925951Y1016190D01*
X927521Y1015540D01*
X929219D01*
X930789Y1016190D01*
X931990Y1017391D01*
X932640Y1018961D01*
Y1020659D01*
X931990Y1022229D01*
X930789Y1023430D01*
X931155Y1024653D01*
X963333Y1056831D01*
X964603Y1056305D01*
Y1055811D01*
X965253Y1054241D01*
X966454Y1053040D01*
X968023Y1052390D01*
X969722D01*
X971292Y1053040D01*
X972493Y1054241D01*
X973143Y1055811D01*
Y1056628D01*
X973785Y1057271D01*
X975587D01*
X976405Y1057433D01*
X977098Y1057896D01*
X1274051Y1354849D01*
X1274514Y1355542D01*
X1274677Y1356360D01*
Y1611630D01*
X1274514Y1612448D01*
X1274051Y1613141D01*
X853681Y2033511D01*
X852988Y2033974D01*
X852170Y2034137D01*
X729865D01*
X702653Y2061348D01*
X702770Y2061631D01*
Y2063329D01*
X702120Y2064899D01*
X700919Y2066100D01*
X699349Y2066750D01*
D02*
G37*
G36*
X170098Y1069470D02*
X167722D01*
X165428Y1068855D01*
X163372Y1067668D01*
X161692Y1065988D01*
X160505Y1063932D01*
X159890Y1061637D01*
Y1059262D01*
X160505Y1056968D01*
X161692Y1054912D01*
X163372Y1053232D01*
X165428Y1052045D01*
X167722Y1051430D01*
X170098D01*
X172392Y1052045D01*
X174448Y1053232D01*
X176128Y1054912D01*
X177315Y1056968D01*
X177930Y1059262D01*
Y1061637D01*
X177315Y1063932D01*
X176128Y1065988D01*
X174448Y1067668D01*
X172392Y1068855D01*
X170098Y1069470D01*
D02*
G37*
G36*
X96438D02*
X94062D01*
X91768Y1068855D01*
X89712Y1067668D01*
X88032Y1065988D01*
X86845Y1063932D01*
X86230Y1061637D01*
Y1059262D01*
X86845Y1056968D01*
X88032Y1054912D01*
X89712Y1053232D01*
X91768Y1052045D01*
X94062Y1051430D01*
X96438D01*
X98732Y1052045D01*
X100788Y1053232D01*
X102468Y1054912D01*
X103655Y1056968D01*
X104270Y1059262D01*
Y1061637D01*
X103655Y1063932D01*
X102468Y1065988D01*
X100788Y1067668D01*
X98732Y1068855D01*
X96438Y1069470D01*
D02*
G37*
G36*
X588859Y2080720D02*
X587161D01*
X585591Y2080070D01*
X584390Y2078869D01*
X583740Y2077299D01*
Y2075601D01*
X584390Y2074031D01*
X585591Y2072830D01*
X587161Y2072180D01*
X588859D01*
X590429Y2072830D01*
X591630Y2074031D01*
X591747Y2074314D01*
X903355D01*
X1095820Y1881849D01*
Y1863005D01*
X1095983Y1862188D01*
X1096446Y1861495D01*
X1318663Y1639277D01*
Y1373805D01*
X985117Y1040258D01*
X983847Y1040784D01*
Y1049405D01*
X1296911Y1362469D01*
X1297374Y1363162D01*
X1297536Y1363980D01*
Y1633220D01*
X1297374Y1634038D01*
X1296911Y1634731D01*
X866381Y2065261D01*
X865688Y2065724D01*
X864870Y2065887D01*
X722557D01*
X722440Y2066169D01*
X721239Y2067370D01*
X719669Y2068020D01*
X717971D01*
X716401Y2067370D01*
X715200Y2066169D01*
X714550Y2064599D01*
Y2062901D01*
X715200Y2061331D01*
X716401Y2060130D01*
X717971Y2059480D01*
X719669D01*
X721239Y2060130D01*
X722440Y2061331D01*
X722557Y2061613D01*
X863985D01*
X1293264Y1632335D01*
Y1364865D01*
X980199Y1051801D01*
X979736Y1051108D01*
X979574Y1050290D01*
Y1033395D01*
X968872Y1022693D01*
X968589Y1022810D01*
X966891D01*
X965321Y1022160D01*
X964120Y1020959D01*
X963470Y1019389D01*
Y1017691D01*
X964120Y1016121D01*
X965321Y1014920D01*
X966891Y1014270D01*
X968589D01*
X970159Y1014920D01*
X971360Y1016121D01*
X972010Y1017691D01*
Y1019389D01*
X971893Y1019672D01*
X982113Y1029892D01*
X983383Y1029366D01*
Y992755D01*
X968125Y977496D01*
X963857D01*
X963740Y977779D01*
X962539Y978980D01*
X960969Y979630D01*
X959271D01*
X957701Y978980D01*
X956500Y977779D01*
X955850Y976209D01*
Y974511D01*
X956500Y972941D01*
X957701Y971740D01*
X959271Y971090D01*
X960969D01*
X962539Y971740D01*
X963740Y972941D01*
X963857Y973223D01*
X969010D01*
X969828Y973386D01*
X970521Y973849D01*
X987031Y990359D01*
X987494Y991052D01*
X987656Y991870D01*
Y1036755D01*
X1322311Y1371409D01*
X1322774Y1372103D01*
X1322937Y1372920D01*
Y1640162D01*
X1322774Y1640979D01*
X1322311Y1641673D01*
X1100093Y1863890D01*
Y1882733D01*
X1099930Y1883551D01*
X1099467Y1884244D01*
X905751Y2077961D01*
X905058Y2078424D01*
X904240Y2078586D01*
X591747D01*
X591630Y2078869D01*
X590429Y2080070D01*
X588859Y2080720D01*
D02*
G37*
G36*
X1048599Y1074880D02*
X1046901D01*
X1045331Y1074230D01*
X1044130Y1073029D01*
X1043480Y1071459D01*
Y1069761D01*
X1044130Y1068191D01*
X1045331Y1066990D01*
X1046901Y1066340D01*
X1048599D01*
X1048882Y1066457D01*
X1059584Y1055755D01*
Y1047677D01*
X1059301Y1047560D01*
X1058100Y1046359D01*
X1057450Y1044789D01*
Y1043091D01*
X1058100Y1041521D01*
X1059301Y1040320D01*
X1060871Y1039670D01*
X1062569D01*
X1064139Y1040320D01*
X1065340Y1041521D01*
X1065990Y1043091D01*
Y1044789D01*
X1065340Y1046359D01*
X1064139Y1047560D01*
X1063857Y1047677D01*
Y1056640D01*
X1063694Y1057458D01*
X1063231Y1058151D01*
X1051903Y1069478D01*
X1052020Y1069761D01*
Y1071459D01*
X1051370Y1073029D01*
X1050169Y1074230D01*
X1048599Y1074880D01*
D02*
G37*
G36*
X1108710Y1108307D02*
X1107892Y1108144D01*
X1107199Y1107681D01*
X1106736Y1106988D01*
X1106573Y1106170D01*
X1106736Y1105352D01*
X1107199Y1104659D01*
X1134513Y1077345D01*
Y1028700D01*
X1134676Y1027882D01*
X1135139Y1027189D01*
X1135832Y1026726D01*
X1136650Y1026563D01*
X1137468Y1026726D01*
X1138161Y1027189D01*
X1138624Y1027882D01*
X1138786Y1028700D01*
Y1078230D01*
X1138624Y1079048D01*
X1138161Y1079741D01*
X1110221Y1107681D01*
X1109528Y1108144D01*
X1108710Y1108307D01*
D02*
G37*
G36*
X364399Y1000110D02*
X362701D01*
X361131Y999460D01*
X359930Y998258D01*
X359813Y997976D01*
X212250D01*
X211432Y997813D01*
X210739Y997350D01*
X95112Y881723D01*
X94829Y881840D01*
X93131D01*
X91561Y881190D01*
X90360Y879989D01*
X89710Y878419D01*
Y876721D01*
X90360Y875151D01*
X91561Y873950D01*
X93131Y873300D01*
X94829D01*
X96399Y873950D01*
X97600Y875151D01*
X98250Y876721D01*
Y878419D01*
X98133Y878702D01*
X213135Y993703D01*
X359813D01*
X359930Y993421D01*
X361131Y992220D01*
X362701Y991570D01*
X364399D01*
X365969Y992220D01*
X367170Y993421D01*
X367820Y994990D01*
Y996689D01*
X367170Y998258D01*
X365969Y999460D01*
X364399Y1000110D01*
D02*
G37*
G36*
X365339Y989790D02*
X363641D01*
X362071Y989140D01*
X360870Y987939D01*
X360753Y987656D01*
X231140D01*
X230322Y987494D01*
X229629Y987031D01*
X172479Y929881D01*
X172016Y929188D01*
X171854Y928370D01*
Y885117D01*
X171571Y885000D01*
X170370Y883799D01*
X169720Y882229D01*
Y880531D01*
X170370Y878961D01*
X171571Y877760D01*
X173141Y877110D01*
X174839D01*
X176409Y877760D01*
X177610Y878961D01*
X178260Y880531D01*
Y882229D01*
X177610Y883799D01*
X176409Y885000D01*
X176126Y885117D01*
Y927485D01*
X232025Y983383D01*
X360753D01*
X360870Y983101D01*
X362071Y981900D01*
X363641Y981250D01*
X365339D01*
X366909Y981900D01*
X368110Y983101D01*
X368760Y984671D01*
Y986369D01*
X368110Y987939D01*
X366909Y989140D01*
X365339Y989790D01*
D02*
G37*
G36*
X373199Y956960D02*
X371021D01*
X368918Y956396D01*
X367032Y955308D01*
X365492Y953768D01*
X364404Y951882D01*
X363840Y949779D01*
Y947601D01*
X364404Y945498D01*
X365492Y943612D01*
X367032Y942072D01*
X368918Y940984D01*
X371021Y940420D01*
X373199D01*
X375302Y940984D01*
X377188Y942072D01*
X378728Y943612D01*
X379816Y945498D01*
X380380Y947601D01*
Y949779D01*
X379816Y951882D01*
X378728Y953768D01*
X377188Y955308D01*
X375302Y956396D01*
X373199Y956960D01*
D02*
G37*
G36*
X296999D02*
X294821D01*
X292718Y956396D01*
X290832Y955308D01*
X289292Y953768D01*
X288204Y951882D01*
X287640Y949779D01*
Y947601D01*
X288204Y945498D01*
X289292Y943612D01*
X290832Y942072D01*
X292718Y940984D01*
X294821Y940420D01*
X296999D01*
X299102Y940984D01*
X300988Y942072D01*
X302528Y943612D01*
X303616Y945498D01*
X304180Y947601D01*
Y949779D01*
X303616Y951882D01*
X302528Y953768D01*
X300988Y955308D01*
X299102Y956396D01*
X296999Y956960D01*
D02*
G37*
G36*
X253819Y955690D02*
X251641D01*
X249538Y955126D01*
X247652Y954038D01*
X246112Y952498D01*
X245024Y950612D01*
X244460Y948509D01*
Y946331D01*
X245024Y944228D01*
X246112Y942342D01*
X247652Y940802D01*
X249538Y939714D01*
X251641Y939150D01*
X253819D01*
X255922Y939714D01*
X257808Y940802D01*
X259348Y942342D01*
X260436Y944228D01*
X261000Y946331D01*
Y948509D01*
X260436Y950612D01*
X259348Y952498D01*
X257808Y954038D01*
X255922Y955126D01*
X253819Y955690D01*
D02*
G37*
G36*
X942258Y904370D02*
X939883D01*
X937588Y903755D01*
X935532Y902568D01*
X933852Y900888D01*
X932665Y898832D01*
X932050Y896537D01*
Y894163D01*
X932665Y891868D01*
X933852Y889812D01*
X935532Y888132D01*
X937588Y886945D01*
X939883Y886330D01*
X942258D01*
X944552Y886945D01*
X946608Y888132D01*
X948288Y889812D01*
X949475Y891868D01*
X950090Y894163D01*
Y896537D01*
X949475Y898832D01*
X948288Y900888D01*
X946608Y902568D01*
X944552Y903755D01*
X942258Y904370D01*
D02*
G37*
G36*
X327545Y867290D02*
X325235D01*
X323005Y866692D01*
X321005Y865538D01*
X319372Y863905D01*
X318218Y861905D01*
X317620Y859675D01*
Y857365D01*
X318218Y855135D01*
X319372Y853135D01*
X321005Y851502D01*
X323005Y850348D01*
X325235Y849750D01*
X327545D01*
X329775Y850348D01*
X331775Y851502D01*
X333408Y853135D01*
X334562Y855135D01*
X335160Y857365D01*
Y859675D01*
X334562Y861905D01*
X333408Y863905D01*
X331775Y865538D01*
X329775Y866692D01*
X327545Y867290D01*
D02*
G37*
G36*
X302145D02*
X299835D01*
X297605Y866692D01*
X295605Y865538D01*
X293972Y863905D01*
X292818Y861905D01*
X292220Y859675D01*
Y857365D01*
X292818Y855135D01*
X293972Y853135D01*
X295605Y851502D01*
X297605Y850348D01*
X299835Y849750D01*
X302145D01*
X304375Y850348D01*
X306375Y851502D01*
X308008Y853135D01*
X309162Y855135D01*
X309760Y857365D01*
Y859675D01*
X309162Y861905D01*
X308008Y863905D01*
X306375Y865538D01*
X304375Y866692D01*
X302145Y867290D01*
D02*
G37*
G36*
X276745D02*
X274435D01*
X272205Y866692D01*
X270205Y865538D01*
X268572Y863905D01*
X267418Y861905D01*
X266820Y859675D01*
Y857365D01*
X267418Y855135D01*
X268572Y853135D01*
X270205Y851502D01*
X272205Y850348D01*
X274435Y849750D01*
X276745D01*
X278975Y850348D01*
X280975Y851502D01*
X282608Y853135D01*
X283762Y855135D01*
X284360Y857365D01*
Y859675D01*
X283762Y861905D01*
X282608Y863905D01*
X280975Y865538D01*
X278975Y866692D01*
X276745Y867290D01*
D02*
G37*
G36*
X251345D02*
X249035D01*
X246805Y866692D01*
X244805Y865538D01*
X243172Y863905D01*
X242018Y861905D01*
X241420Y859675D01*
Y857365D01*
X242018Y855135D01*
X243172Y853135D01*
X244805Y851502D01*
X246805Y850348D01*
X249035Y849750D01*
X251345D01*
X253575Y850348D01*
X255575Y851502D01*
X257208Y853135D01*
X258362Y855135D01*
X258960Y857365D01*
Y859675D01*
X258362Y861905D01*
X257208Y863905D01*
X255575Y865538D01*
X253575Y866692D01*
X251345Y867290D01*
D02*
G37*
G36*
X302145Y791090D02*
X299835D01*
X297605Y790492D01*
X295605Y789338D01*
X293972Y787705D01*
X292818Y785705D01*
X292220Y783475D01*
Y781165D01*
X292818Y778935D01*
X293972Y776935D01*
X295605Y775302D01*
X297605Y774148D01*
X299835Y773550D01*
X302145D01*
X304375Y774148D01*
X306375Y775302D01*
X308008Y776935D01*
X309162Y778935D01*
X309760Y781165D01*
Y783475D01*
X309162Y785705D01*
X308008Y787705D01*
X306375Y789338D01*
X304375Y790492D01*
X302145Y791090D01*
D02*
G37*
G36*
X276745D02*
X274435D01*
X272205Y790492D01*
X270205Y789338D01*
X268572Y787705D01*
X267418Y785705D01*
X266820Y783475D01*
Y781165D01*
X267418Y778935D01*
X268572Y776935D01*
X270205Y775302D01*
X272205Y774148D01*
X274435Y773550D01*
X276745D01*
X278975Y774148D01*
X280975Y775302D01*
X282608Y776935D01*
X283762Y778935D01*
X284360Y781165D01*
Y783475D01*
X283762Y785705D01*
X282608Y787705D01*
X280975Y789338D01*
X278975Y790492D01*
X276745Y791090D01*
D02*
G37*
G36*
X258960D02*
X241420D01*
Y773550D01*
X258960D01*
Y791090D01*
D02*
G37*
G36*
X167558Y778640D02*
X165182D01*
X162888Y778025D01*
X160832Y776838D01*
X159152Y775158D01*
X157965Y773102D01*
X157350Y770807D01*
Y768432D01*
X157965Y766138D01*
X159152Y764082D01*
X160832Y762402D01*
X162888Y761215D01*
X165182Y760600D01*
X167558D01*
X169852Y761215D01*
X171908Y762402D01*
X173588Y764082D01*
X174775Y766138D01*
X175390Y768432D01*
Y770807D01*
X174775Y773102D01*
X173588Y775158D01*
X171908Y776838D01*
X169852Y778025D01*
X167558Y778640D01*
D02*
G37*
G36*
X96438D02*
X94062D01*
X91768Y778025D01*
X89712Y776838D01*
X88032Y775158D01*
X86845Y773102D01*
X86230Y770807D01*
Y768432D01*
X86845Y766138D01*
X88032Y764082D01*
X89712Y762402D01*
X91768Y761215D01*
X94062Y760600D01*
X96438D01*
X98732Y761215D01*
X100788Y762402D01*
X102468Y764082D01*
X103655Y766138D01*
X104270Y768432D01*
Y770807D01*
X103655Y773102D01*
X102468Y775158D01*
X100788Y776838D01*
X98732Y778025D01*
X96438Y778640D01*
D02*
G37*
G36*
X588859Y767540D02*
X587161D01*
X585591Y766890D01*
X584390Y765689D01*
X583740Y764119D01*
Y762421D01*
X583857Y762138D01*
X430915Y609197D01*
X327587D01*
X327470Y609479D01*
X326269Y610680D01*
X324699Y611330D01*
X323001D01*
X321431Y610680D01*
X320230Y609479D01*
X319580Y607909D01*
Y606211D01*
X320230Y604641D01*
X321431Y603440D01*
X323001Y602790D01*
X324699D01*
X326269Y603440D01*
X327470Y604641D01*
X327587Y604924D01*
X431800D01*
X432618Y605086D01*
X433311Y605549D01*
X586878Y759117D01*
X587161Y759000D01*
X588859D01*
X590429Y759650D01*
X591630Y760851D01*
X592280Y762421D01*
Y764119D01*
X591630Y765689D01*
X590429Y766890D01*
X588859Y767540D01*
D02*
G37*
G36*
X588704Y753045D02*
X587005D01*
X585436Y752395D01*
X584235Y751194D01*
X583584Y749625D01*
Y747926D01*
X583701Y747644D01*
X431284Y595227D01*
X327587D01*
X327470Y595509D01*
X326269Y596710D01*
X324699Y597360D01*
X323001D01*
X321431Y596710D01*
X320230Y595509D01*
X319580Y593939D01*
Y592241D01*
X320230Y590671D01*
X321431Y589470D01*
X323001Y588820D01*
X324699D01*
X326269Y589470D01*
X327470Y590671D01*
X327587Y590953D01*
X432169D01*
X432987Y591116D01*
X433680Y591579D01*
X586723Y744622D01*
X587005Y744505D01*
X588704D01*
X590273Y745155D01*
X591474Y746357D01*
X592124Y747926D01*
Y749625D01*
X591474Y751194D01*
X590273Y752395D01*
X588704Y753045D01*
D02*
G37*
G36*
X369389Y711850D02*
X367211D01*
X365108Y711286D01*
X363222Y710198D01*
X361682Y708658D01*
X360594Y706772D01*
X360030Y704669D01*
Y702491D01*
X360594Y700388D01*
X361682Y698502D01*
X363222Y696962D01*
X365108Y695874D01*
X367211Y695310D01*
X369389D01*
X371492Y695874D01*
X373378Y696962D01*
X374918Y698502D01*
X376006Y700388D01*
X376570Y702491D01*
Y704669D01*
X376006Y706772D01*
X374918Y708658D01*
X373378Y710198D01*
X371492Y711286D01*
X369389Y711850D01*
D02*
G37*
G36*
X293189D02*
X291011D01*
X288908Y711286D01*
X287022Y710198D01*
X285482Y708658D01*
X284394Y706772D01*
X283830Y704669D01*
Y702491D01*
X284394Y700388D01*
X285482Y698502D01*
X287022Y696962D01*
X288908Y695874D01*
X291011Y695310D01*
X293189D01*
X295292Y695874D01*
X297178Y696962D01*
X298718Y698502D01*
X299806Y700388D01*
X300370Y702491D01*
Y704669D01*
X299806Y706772D01*
X298718Y708658D01*
X297178Y710198D01*
X295292Y711286D01*
X293189Y711850D01*
D02*
G37*
G36*
X241119D02*
X238941D01*
X236838Y711286D01*
X234952Y710198D01*
X233412Y708658D01*
X232324Y706772D01*
X231760Y704669D01*
Y702491D01*
X232324Y700388D01*
X233412Y698502D01*
X234952Y696962D01*
X236838Y695874D01*
X238941Y695310D01*
X241119D01*
X243222Y695874D01*
X245108Y696962D01*
X246648Y698502D01*
X247736Y700388D01*
X248300Y702491D01*
Y704669D01*
X247736Y706772D01*
X246648Y708658D01*
X245108Y710198D01*
X243222Y711286D01*
X241119Y711850D01*
D02*
G37*
G36*
X574884Y704572D02*
X573185D01*
X571616Y703922D01*
X570415Y702720D01*
X569765Y701151D01*
Y699452D01*
X569881Y699170D01*
X303378Y432667D01*
X215900D01*
X215082Y432504D01*
X214389Y432041D01*
X105649Y323300D01*
X105289Y323660D01*
X103719Y324310D01*
X102021D01*
X100451Y323660D01*
X99250Y322459D01*
X98600Y320889D01*
Y319191D01*
X99250Y317621D01*
X100451Y316420D01*
X102021Y315770D01*
X103719D01*
X105289Y316420D01*
X106490Y317621D01*
X107042Y318953D01*
X107133Y318971D01*
X107826Y319434D01*
X216785Y428394D01*
X304263D01*
X305080Y428556D01*
X305774Y429019D01*
X571771Y695017D01*
X572848Y694297D01*
X572310Y692999D01*
Y691301D01*
X572427Y691018D01*
X291360Y409952D01*
X245255D01*
X244437Y409789D01*
X243744Y409326D01*
X172582Y338163D01*
X172299Y338280D01*
X170601D01*
X169031Y337630D01*
X167830Y336429D01*
X167180Y334859D01*
Y333161D01*
X167830Y331591D01*
X169031Y330390D01*
X170601Y329740D01*
X172299D01*
X173869Y330390D01*
X175070Y331591D01*
X175720Y333161D01*
Y334859D01*
X175603Y335142D01*
X246140Y405678D01*
X292245D01*
X293063Y405841D01*
X293756Y406304D01*
X575448Y687997D01*
X575731Y687880D01*
X577429D01*
X578999Y688530D01*
X580200Y689731D01*
X580850Y691301D01*
Y692999D01*
X580200Y694569D01*
X578999Y695770D01*
X577824Y696256D01*
X577446Y697356D01*
X577452Y697681D01*
X577654Y697883D01*
X578304Y699452D01*
Y701151D01*
X577654Y702720D01*
X576453Y703922D01*
X574884Y704572D01*
D02*
G37*
G36*
X768268Y686150D02*
X765892D01*
X763598Y685535D01*
X761542Y684348D01*
X759862Y682668D01*
X758675Y680612D01*
X758060Y678317D01*
Y675943D01*
X758675Y673648D01*
X759862Y671592D01*
X761542Y669912D01*
X763598Y668725D01*
X765892Y668110D01*
X768268D01*
X770562Y668725D01*
X772618Y669912D01*
X774298Y671592D01*
X775485Y673648D01*
X776100Y675943D01*
Y678317D01*
X775485Y680612D01*
X774298Y682668D01*
X772618Y684348D01*
X770562Y685535D01*
X768268Y686150D01*
D02*
G37*
G36*
X718268D02*
X715892D01*
X713598Y685535D01*
X711542Y684348D01*
X709862Y682668D01*
X708675Y680612D01*
X708060Y678317D01*
Y675943D01*
X708675Y673648D01*
X709862Y671592D01*
X711542Y669912D01*
X713598Y668725D01*
X715892Y668110D01*
X718268D01*
X720562Y668725D01*
X722618Y669912D01*
X724298Y671592D01*
X725485Y673648D01*
X726100Y675943D01*
Y678317D01*
X725485Y680612D01*
X724298Y682668D01*
X722618Y684348D01*
X720562Y685535D01*
X718268Y686150D01*
D02*
G37*
G36*
X878439Y1071070D02*
X876741D01*
X875171Y1070420D01*
X873970Y1069219D01*
X873320Y1067649D01*
Y1065951D01*
X873970Y1064381D01*
X875171Y1063180D01*
X876078Y1062804D01*
Y638277D01*
X875220Y637419D01*
X874570Y635849D01*
Y634151D01*
X875220Y632581D01*
X876421Y631380D01*
X877991Y630730D01*
X879689D01*
X881259Y631380D01*
X882460Y632581D01*
X883110Y634151D01*
Y635849D01*
X882460Y637419D01*
X881259Y638620D01*
X880352Y638996D01*
Y1063523D01*
X881210Y1064381D01*
X881860Y1065951D01*
Y1067649D01*
X881210Y1069219D01*
X880009Y1070420D01*
X878439Y1071070D01*
D02*
G37*
G36*
X799080Y628515D02*
X795616Y628059D01*
X792388Y626721D01*
X789616Y624594D01*
X787489Y621822D01*
X786152Y618594D01*
X785695Y615130D01*
Y589130D01*
X786152Y585666D01*
X787489Y582438D01*
X789616Y579666D01*
X792388Y577539D01*
X795616Y576202D01*
X799080Y575746D01*
X802544Y576202D01*
X805772Y577539D01*
X808544Y579666D01*
X810671Y582438D01*
X812008Y585666D01*
X812465Y589130D01*
Y615130D01*
X812008Y618594D01*
X810671Y621822D01*
X808544Y624594D01*
X805772Y626721D01*
X802544Y628059D01*
X799080Y628515D01*
D02*
G37*
G36*
X685080D02*
X681616Y628059D01*
X678388Y626721D01*
X675616Y624594D01*
X673489Y621822D01*
X672152Y618594D01*
X671695Y615130D01*
Y589130D01*
X672152Y585666D01*
X673489Y582438D01*
X675616Y579666D01*
X678388Y577539D01*
X681616Y576202D01*
X685080Y575746D01*
X688544Y576202D01*
X691772Y577539D01*
X694544Y579666D01*
X696671Y582438D01*
X698008Y585666D01*
X698465Y589130D01*
Y615130D01*
X698008Y618594D01*
X696671Y621822D01*
X694544Y624594D01*
X691772Y626721D01*
X688544Y628059D01*
X685080Y628515D01*
D02*
G37*
G36*
X848278Y575440D02*
X845902D01*
X843608Y574825D01*
X841552Y573638D01*
X839872Y571958D01*
X838685Y569902D01*
X838070Y567607D01*
Y565233D01*
X838685Y562938D01*
X839872Y560882D01*
X841552Y559202D01*
X843608Y558015D01*
X845902Y557400D01*
X848278D01*
X850572Y558015D01*
X852628Y559202D01*
X854308Y560882D01*
X855495Y562938D01*
X856110Y565233D01*
Y567607D01*
X855495Y569902D01*
X854308Y571958D01*
X852628Y573638D01*
X850572Y574825D01*
X848278Y575440D01*
D02*
G37*
G36*
X776100Y541150D02*
X758060D01*
Y523110D01*
X776100D01*
Y541150D01*
D02*
G37*
G36*
X718268D02*
X715892D01*
X713598Y540535D01*
X711542Y539348D01*
X709862Y537668D01*
X708675Y535612D01*
X708060Y533317D01*
Y530942D01*
X708675Y528648D01*
X709862Y526592D01*
X711542Y524912D01*
X713598Y523725D01*
X715892Y523110D01*
X718268D01*
X720562Y523725D01*
X722618Y524912D01*
X724298Y526592D01*
X725485Y528648D01*
X726100Y530942D01*
Y533317D01*
X725485Y535612D01*
X724298Y537668D01*
X722618Y539348D01*
X720562Y540535D01*
X718268Y541150D01*
D02*
G37*
G36*
X167558Y522260D02*
X165182D01*
X162888Y521645D01*
X160832Y520458D01*
X159152Y518778D01*
X157965Y516722D01*
X157350Y514427D01*
Y512052D01*
X157965Y509758D01*
X159152Y507702D01*
X160832Y506022D01*
X162888Y504835D01*
X165182Y504220D01*
X167558D01*
X169852Y504835D01*
X171908Y506022D01*
X173588Y507702D01*
X174775Y509758D01*
X175390Y512052D01*
Y514427D01*
X174775Y516722D01*
X173588Y518778D01*
X171908Y520458D01*
X169852Y521645D01*
X167558Y522260D01*
D02*
G37*
G36*
X96438D02*
X94062D01*
X91768Y521645D01*
X89712Y520458D01*
X88032Y518778D01*
X86845Y516722D01*
X86230Y514427D01*
Y512052D01*
X86845Y509758D01*
X88032Y507702D01*
X89712Y506022D01*
X91768Y504835D01*
X94062Y504220D01*
X96438D01*
X98732Y504835D01*
X100788Y506022D01*
X102468Y507702D01*
X103655Y509758D01*
X104270Y512052D01*
Y514427D01*
X103655Y516722D01*
X102468Y518778D01*
X100788Y520458D01*
X98732Y521645D01*
X96438Y522260D01*
D02*
G37*
G36*
X253819Y400860D02*
X251641D01*
X249538Y400296D01*
X247652Y399208D01*
X246112Y397668D01*
X245024Y395782D01*
X244460Y393679D01*
Y391501D01*
X245024Y389398D01*
X246112Y387512D01*
X247652Y385972D01*
X249538Y384884D01*
X251641Y384320D01*
X253819D01*
X255922Y384884D01*
X257808Y385972D01*
X259348Y387512D01*
X260436Y389398D01*
X261000Y391501D01*
Y393679D01*
X260436Y395782D01*
X259348Y397668D01*
X257808Y399208D01*
X255922Y400296D01*
X253819Y400860D01*
D02*
G37*
G36*
X377009Y400700D02*
X374831D01*
X372728Y400136D01*
X370842Y399048D01*
X369302Y397508D01*
X368214Y395622D01*
X367650Y393519D01*
Y391341D01*
X368214Y389238D01*
X369302Y387352D01*
X370842Y385812D01*
X372728Y384724D01*
X374831Y384160D01*
X377009D01*
X379112Y384724D01*
X380998Y385812D01*
X382538Y387352D01*
X383626Y389238D01*
X384190Y391341D01*
Y393519D01*
X383626Y395622D01*
X382538Y397508D01*
X380998Y399048D01*
X379112Y400136D01*
X377009Y400700D01*
D02*
G37*
G36*
X300809D02*
X298631D01*
X296528Y400136D01*
X294642Y399048D01*
X293102Y397508D01*
X292014Y395622D01*
X291450Y393519D01*
Y391341D01*
X292014Y389238D01*
X293102Y387352D01*
X294642Y385812D01*
X296528Y384724D01*
X298631Y384160D01*
X300809D01*
X302912Y384724D01*
X304798Y385812D01*
X306338Y387352D01*
X307426Y389238D01*
X307990Y391341D01*
Y393519D01*
X307426Y395622D01*
X306338Y397508D01*
X304798Y399048D01*
X302912Y400136D01*
X300809Y400700D01*
D02*
G37*
G36*
X327545Y323890D02*
X325235D01*
X323005Y323292D01*
X321005Y322138D01*
X319372Y320505D01*
X318218Y318505D01*
X317620Y316275D01*
Y313965D01*
X318218Y311735D01*
X319372Y309735D01*
X321005Y308102D01*
X323005Y306948D01*
X325235Y306350D01*
X327545D01*
X329775Y306948D01*
X331775Y308102D01*
X333408Y309735D01*
X334562Y311735D01*
X335160Y313965D01*
Y316275D01*
X334562Y318505D01*
X333408Y320505D01*
X331775Y322138D01*
X329775Y323292D01*
X327545Y323890D01*
D02*
G37*
G36*
X302145D02*
X299835D01*
X297605Y323292D01*
X295605Y322138D01*
X293972Y320505D01*
X292818Y318505D01*
X292220Y316275D01*
Y313965D01*
X292818Y311735D01*
X293972Y309735D01*
X295605Y308102D01*
X297605Y306948D01*
X299835Y306350D01*
X302145D01*
X304375Y306948D01*
X306375Y308102D01*
X308008Y309735D01*
X309162Y311735D01*
X309760Y313965D01*
Y316275D01*
X309162Y318505D01*
X308008Y320505D01*
X306375Y322138D01*
X304375Y323292D01*
X302145Y323890D01*
D02*
G37*
G36*
X276745D02*
X274435D01*
X272205Y323292D01*
X270205Y322138D01*
X268572Y320505D01*
X267418Y318505D01*
X266820Y316275D01*
Y313965D01*
X267418Y311735D01*
X268572Y309735D01*
X270205Y308102D01*
X272205Y306948D01*
X274435Y306350D01*
X276745D01*
X278975Y306948D01*
X280975Y308102D01*
X282608Y309735D01*
X283762Y311735D01*
X284360Y313965D01*
Y316275D01*
X283762Y318505D01*
X282608Y320505D01*
X280975Y322138D01*
X278975Y323292D01*
X276745Y323890D01*
D02*
G37*
G36*
X251345D02*
X249035D01*
X246805Y323292D01*
X244805Y322138D01*
X243172Y320505D01*
X242018Y318505D01*
X241420Y316275D01*
Y313965D01*
X242018Y311735D01*
X243172Y309735D01*
X244805Y308102D01*
X246805Y306948D01*
X249035Y306350D01*
X251345D01*
X253575Y306948D01*
X255575Y308102D01*
X257208Y309735D01*
X258362Y311735D01*
X258960Y313965D01*
Y316275D01*
X258362Y318505D01*
X257208Y320505D01*
X255575Y322138D01*
X253575Y323292D01*
X251345Y323890D01*
D02*
G37*
G36*
X888579Y1073610D02*
X886881D01*
X885311Y1072960D01*
X884110Y1071759D01*
X883460Y1070189D01*
Y1068491D01*
X884110Y1066921D01*
X885311Y1065720D01*
X885593Y1065603D01*
Y884777D01*
X885756Y883960D01*
X886219Y883267D01*
X899564Y869922D01*
Y543629D01*
X624996Y269062D01*
X624714Y269179D01*
X623015D01*
X621445Y268528D01*
X620244Y267327D01*
X619594Y265758D01*
Y264059D01*
X620244Y262490D01*
X621445Y261289D01*
X623015Y260639D01*
X624714D01*
X626283Y261289D01*
X627484Y262490D01*
X628134Y264059D01*
Y265758D01*
X628017Y266040D01*
X903211Y541234D01*
X903674Y541927D01*
X903837Y542744D01*
Y870807D01*
X903674Y871625D01*
X903211Y872318D01*
X889866Y885662D01*
Y1065603D01*
X890149Y1065720D01*
X891350Y1066921D01*
X892000Y1068491D01*
Y1070189D01*
X891350Y1071759D01*
X890149Y1072960D01*
X888579Y1073610D01*
D02*
G37*
G36*
X1544238Y279530D02*
X1541862D01*
X1539568Y278915D01*
X1537512Y277728D01*
X1535832Y276048D01*
X1534645Y273992D01*
X1534030Y271698D01*
Y269322D01*
X1534645Y267028D01*
X1535832Y264972D01*
X1537512Y263292D01*
X1539568Y262105D01*
X1541862Y261490D01*
X1544238D01*
X1546532Y262105D01*
X1548588Y263292D01*
X1550268Y264972D01*
X1551455Y267028D01*
X1552070Y269322D01*
Y271698D01*
X1551455Y273992D01*
X1550268Y276048D01*
X1548588Y277728D01*
X1546532Y278915D01*
X1544238Y279530D01*
D02*
G37*
G36*
X1461687D02*
X1459312D01*
X1457018Y278915D01*
X1454962Y277728D01*
X1453282Y276048D01*
X1452095Y273992D01*
X1451480Y271698D01*
Y269322D01*
X1452095Y267028D01*
X1453282Y264972D01*
X1454962Y263292D01*
X1457018Y262105D01*
X1459312Y261490D01*
X1461687D01*
X1463982Y262105D01*
X1466038Y263292D01*
X1467718Y264972D01*
X1468905Y267028D01*
X1469520Y269322D01*
Y271698D01*
X1468905Y273992D01*
X1467718Y276048D01*
X1466038Y277728D01*
X1463982Y278915D01*
X1461687Y279530D01*
D02*
G37*
G36*
X1379138D02*
X1376763D01*
X1374468Y278915D01*
X1372412Y277728D01*
X1370732Y276048D01*
X1369545Y273992D01*
X1368930Y271698D01*
Y269322D01*
X1369545Y267028D01*
X1370732Y264972D01*
X1372412Y263292D01*
X1374468Y262105D01*
X1376763Y261490D01*
X1379138D01*
X1381432Y262105D01*
X1383488Y263292D01*
X1385168Y264972D01*
X1386355Y267028D01*
X1386970Y269322D01*
Y271698D01*
X1386355Y273992D01*
X1385168Y276048D01*
X1383488Y277728D01*
X1381432Y278915D01*
X1379138Y279530D01*
D02*
G37*
G36*
X1296588D02*
X1294212D01*
X1291918Y278915D01*
X1289862Y277728D01*
X1288182Y276048D01*
X1286995Y273992D01*
X1286380Y271698D01*
Y269322D01*
X1286995Y267028D01*
X1288182Y264972D01*
X1289862Y263292D01*
X1291918Y262105D01*
X1294212Y261490D01*
X1296588D01*
X1298882Y262105D01*
X1300938Y263292D01*
X1302618Y264972D01*
X1303805Y267028D01*
X1304420Y269322D01*
Y271698D01*
X1303805Y273992D01*
X1302618Y276048D01*
X1300938Y277728D01*
X1298882Y278915D01*
X1296588Y279530D01*
D02*
G37*
G36*
X1214037D02*
X1211663D01*
X1209368Y278915D01*
X1207312Y277728D01*
X1205632Y276048D01*
X1204445Y273992D01*
X1203830Y271698D01*
Y269322D01*
X1204445Y267028D01*
X1205632Y264972D01*
X1207312Y263292D01*
X1209368Y262105D01*
X1211663Y261490D01*
X1214037D01*
X1216332Y262105D01*
X1218388Y263292D01*
X1220068Y264972D01*
X1221255Y267028D01*
X1221870Y269322D01*
Y271698D01*
X1221255Y273992D01*
X1220068Y276048D01*
X1218388Y277728D01*
X1216332Y278915D01*
X1214037Y279530D01*
D02*
G37*
G36*
X1131488D02*
X1129112D01*
X1126818Y278915D01*
X1124762Y277728D01*
X1123082Y276048D01*
X1121895Y273992D01*
X1121280Y271698D01*
Y269322D01*
X1121895Y267028D01*
X1123082Y264972D01*
X1124762Y263292D01*
X1126818Y262105D01*
X1129112Y261490D01*
X1131488D01*
X1133782Y262105D01*
X1135838Y263292D01*
X1137518Y264972D01*
X1138705Y267028D01*
X1139320Y269322D01*
Y271698D01*
X1138705Y273992D01*
X1137518Y276048D01*
X1135838Y277728D01*
X1133782Y278915D01*
X1131488Y279530D01*
D02*
G37*
G36*
X1048938D02*
X1046562D01*
X1044268Y278915D01*
X1042212Y277728D01*
X1040532Y276048D01*
X1039345Y273992D01*
X1038730Y271698D01*
Y269322D01*
X1039345Y267028D01*
X1040532Y264972D01*
X1042212Y263292D01*
X1044268Y262105D01*
X1046562Y261490D01*
X1048938D01*
X1051232Y262105D01*
X1053288Y263292D01*
X1054968Y264972D01*
X1056155Y267028D01*
X1056770Y269322D01*
Y271698D01*
X1056155Y273992D01*
X1054968Y276048D01*
X1053288Y277728D01*
X1051232Y278915D01*
X1048938Y279530D01*
D02*
G37*
G36*
X966387D02*
X964013D01*
X961718Y278915D01*
X959662Y277728D01*
X957982Y276048D01*
X956795Y273992D01*
X956180Y271698D01*
Y269322D01*
X956795Y267028D01*
X957982Y264972D01*
X959662Y263292D01*
X961718Y262105D01*
X964013Y261490D01*
X966387D01*
X968682Y262105D01*
X970738Y263292D01*
X972418Y264972D01*
X973605Y267028D01*
X974220Y269322D01*
Y271698D01*
X973605Y273992D01*
X972418Y276048D01*
X970738Y277728D01*
X968682Y278915D01*
X966387Y279530D01*
D02*
G37*
G36*
X883838D02*
X881462D01*
X879168Y278915D01*
X877112Y277728D01*
X875432Y276048D01*
X874245Y273992D01*
X873630Y271698D01*
Y269322D01*
X874245Y267028D01*
X875432Y264972D01*
X877112Y263292D01*
X879168Y262105D01*
X881462Y261490D01*
X883838D01*
X886132Y262105D01*
X888188Y263292D01*
X889868Y264972D01*
X891055Y267028D01*
X891670Y269322D01*
Y271698D01*
X891055Y273992D01*
X889868Y276048D01*
X888188Y277728D01*
X886132Y278915D01*
X883838Y279530D01*
D02*
G37*
G36*
X801288D02*
X798913D01*
X796618Y278915D01*
X794562Y277728D01*
X792882Y276048D01*
X791695Y273992D01*
X791080Y271698D01*
Y269322D01*
X791695Y267028D01*
X792882Y264972D01*
X794562Y263292D01*
X796618Y262105D01*
X798913Y261490D01*
X801288D01*
X803582Y262105D01*
X805638Y263292D01*
X807318Y264972D01*
X808505Y267028D01*
X809120Y269322D01*
Y271698D01*
X808505Y273992D01*
X807318Y276048D01*
X805638Y277728D01*
X803582Y278915D01*
X801288Y279530D01*
D02*
G37*
G36*
X718737D02*
X716363D01*
X714068Y278915D01*
X712012Y277728D01*
X710332Y276048D01*
X709145Y273992D01*
X708530Y271698D01*
Y269322D01*
X709145Y267028D01*
X710332Y264972D01*
X712012Y263292D01*
X714068Y262105D01*
X716363Y261490D01*
X718737D01*
X721032Y262105D01*
X723088Y263292D01*
X724768Y264972D01*
X725955Y267028D01*
X726570Y269322D01*
Y271698D01*
X725955Y273992D01*
X724768Y276048D01*
X723088Y277728D01*
X721032Y278915D01*
X718737Y279530D01*
D02*
G37*
G36*
X302145Y247690D02*
X299835D01*
X297605Y247092D01*
X295605Y245938D01*
X293972Y244305D01*
X292818Y242305D01*
X292220Y240075D01*
Y237765D01*
X292818Y235535D01*
X293972Y233535D01*
X295605Y231902D01*
X297605Y230748D01*
X299835Y230150D01*
X302145D01*
X304375Y230748D01*
X306375Y231902D01*
X308008Y233535D01*
X309162Y235535D01*
X309760Y237765D01*
Y240075D01*
X309162Y242305D01*
X308008Y244305D01*
X306375Y245938D01*
X304375Y247092D01*
X302145Y247690D01*
D02*
G37*
G36*
X276745D02*
X274435D01*
X272205Y247092D01*
X270205Y245938D01*
X268572Y244305D01*
X267418Y242305D01*
X266820Y240075D01*
Y237765D01*
X267418Y235535D01*
X268572Y233535D01*
X270205Y231902D01*
X272205Y230748D01*
X274435Y230150D01*
X276745D01*
X278975Y230748D01*
X280975Y231902D01*
X282608Y233535D01*
X283762Y235535D01*
X284360Y237765D01*
Y240075D01*
X283762Y242305D01*
X282608Y244305D01*
X280975Y245938D01*
X278975Y247092D01*
X276745Y247690D01*
D02*
G37*
G36*
X258960D02*
X241420D01*
Y230150D01*
X258960D01*
Y247690D01*
D02*
G37*
G36*
X167558Y235240D02*
X165182D01*
X162888Y234625D01*
X160832Y233438D01*
X159152Y231758D01*
X157965Y229702D01*
X157350Y227407D01*
Y225033D01*
X157965Y222738D01*
X159152Y220682D01*
X160832Y219002D01*
X162888Y217815D01*
X165182Y217200D01*
X167558D01*
X169852Y217815D01*
X171908Y219002D01*
X173588Y220682D01*
X174775Y222738D01*
X175390Y225033D01*
Y227407D01*
X174775Y229702D01*
X173588Y231758D01*
X171908Y233438D01*
X169852Y234625D01*
X167558Y235240D01*
D02*
G37*
G36*
X96438D02*
X94062D01*
X91768Y234625D01*
X89712Y233438D01*
X88032Y231758D01*
X86845Y229702D01*
X86230Y227407D01*
Y225033D01*
X86845Y222738D01*
X88032Y220682D01*
X89712Y219002D01*
X91768Y217815D01*
X94062Y217200D01*
X96438D01*
X98732Y217815D01*
X100788Y219002D01*
X102468Y220682D01*
X103655Y222738D01*
X104270Y225033D01*
Y227407D01*
X103655Y229702D01*
X102468Y231758D01*
X100788Y233438D01*
X98732Y234625D01*
X96438Y235240D01*
D02*
G37*
G36*
X253819Y168450D02*
X251641D01*
X249538Y167886D01*
X247652Y166798D01*
X246112Y165258D01*
X245024Y163372D01*
X244460Y161269D01*
Y159091D01*
X245024Y156988D01*
X246112Y155102D01*
X247652Y153562D01*
X249538Y152474D01*
X251641Y151910D01*
X253819D01*
X255922Y152474D01*
X257808Y153562D01*
X259348Y155102D01*
X260436Y156988D01*
X261000Y159091D01*
Y161269D01*
X260436Y163372D01*
X259348Y165258D01*
X257808Y166798D01*
X255922Y167886D01*
X253819Y168450D01*
D02*
G37*
G36*
X369389Y168290D02*
X367211D01*
X365108Y167726D01*
X363222Y166638D01*
X361682Y165098D01*
X360594Y163212D01*
X360030Y161109D01*
Y158931D01*
X360594Y156828D01*
X361682Y154942D01*
X363222Y153402D01*
X365108Y152314D01*
X367211Y151750D01*
X369389D01*
X371492Y152314D01*
X373378Y153402D01*
X374918Y154942D01*
X376006Y156828D01*
X376570Y158931D01*
Y161109D01*
X376006Y163212D01*
X374918Y165098D01*
X373378Y166638D01*
X371492Y167726D01*
X369389Y168290D01*
D02*
G37*
G36*
X293189D02*
X291011D01*
X288908Y167726D01*
X287022Y166638D01*
X285482Y165098D01*
X284394Y163212D01*
X283830Y161109D01*
Y158931D01*
X284394Y156828D01*
X285482Y154942D01*
X287022Y153402D01*
X288908Y152314D01*
X291011Y151750D01*
X293189D01*
X295292Y152314D01*
X297178Y153402D01*
X298718Y154942D01*
X299806Y156828D01*
X300370Y158931D01*
Y161109D01*
X299806Y163212D01*
X298718Y165098D01*
X297178Y166638D01*
X295292Y167726D01*
X293189Y168290D01*
D02*
G37*
%LPD*%
G36*
X963208Y1207366D02*
X890197D01*
X890080Y1207649D01*
X888879Y1208850D01*
X887309Y1209500D01*
X885611D01*
X884041Y1208850D01*
X882840Y1207649D01*
X882190Y1206079D01*
Y1205579D01*
X880920Y1205052D01*
X877392Y1208580D01*
X877918Y1209850D01*
X878419D01*
X879989Y1210500D01*
X881190Y1211701D01*
X881307Y1211983D01*
X963208D01*
Y1207366D01*
D02*
G37*
G36*
X747340Y1185876D02*
X747570Y1185674D01*
Y1184061D01*
X747687Y1183778D01*
X678042Y1114133D01*
X677759Y1114250D01*
X676146D01*
X675944Y1114480D01*
X675487Y1115387D01*
X746433Y1186333D01*
X747340Y1185876D01*
D02*
G37*
G36*
X789091Y1227280D02*
X787521Y1226630D01*
X786320Y1225429D01*
X786203Y1225146D01*
X780088D01*
X779270Y1224984D01*
X778577Y1224521D01*
X618249Y1064193D01*
X617786Y1063500D01*
X617623Y1062682D01*
Y736527D01*
X617341Y736410D01*
X616313Y735382D01*
X615642Y735593D01*
X615200Y735828D01*
X615140Y735868D01*
Y737449D01*
X614490Y739019D01*
X613289Y740220D01*
X613007Y740337D01*
Y1064645D01*
X776855Y1228493D01*
X788954D01*
X789091Y1227280D01*
D02*
G37*
D14*
X679450Y1026160D02*
X769312D01*
X827732Y1084580D01*
X659130Y1005840D02*
X679450Y1026160D01*
X775970Y1230630D02*
X801370D01*
X610870Y736600D02*
Y1065530D01*
X775970Y1230630D01*
X619760Y1062682D02*
X780088Y1223010D01*
X789940D01*
X619760Y732790D02*
Y1062682D01*
X939348Y1090478D02*
X998220Y1149350D01*
X1047750Y1070610D02*
X1061720Y1056640D01*
Y1043940D02*
Y1056640D01*
X1131570Y1292860D02*
Y1311910D01*
X116840Y1922780D02*
X576580Y1463040D01*
X583388D01*
X135890Y1697990D02*
X245110D01*
X57150Y2161540D02*
X586740D01*
X791977Y1101467D02*
X792480Y1101969D01*
Y1148080D01*
X637540Y1003300D02*
X803910Y1169670D01*
X638810Y1016000D02*
X803910Y1181100D01*
Y1169670D02*
X867410D01*
X803910Y1181100D02*
X867410D01*
X629920Y1024890D02*
X806450Y1201420D01*
X867410D01*
X629920Y660400D02*
Y1024890D01*
X690880Y1102360D02*
X773430Y1184910D01*
X759007Y1090478D02*
X939348D01*
X1136650Y1028700D02*
Y1078230D01*
X1108710Y1106170D02*
X1136650Y1078230D01*
X985520Y991870D02*
Y1037640D01*
X1033780Y1141730D02*
Y1160780D01*
X829325Y1080786D02*
X972835D01*
X1097956Y1863005D02*
X1320800Y1640162D01*
Y1372920D02*
Y1640162D01*
X1097956Y1863005D02*
Y1882733D01*
X904240Y2076450D02*
X1097956Y1882733D01*
X958850Y1084580D02*
X1019810Y1145540D01*
X827732Y1084580D02*
X958850D01*
X361786Y1169670D02*
X362300Y1169156D01*
X330200Y1169670D02*
X361786D01*
X698500Y1029970D02*
X759007Y1090478D01*
X671830Y1029970D02*
X698500D01*
X972835Y1080786D02*
X1033780Y1141730D01*
X744220Y995680D02*
X829325Y1080786D01*
X118110Y1173480D02*
X129365Y1184734D01*
X356543D01*
X661670Y1018540D02*
Y1019810D01*
X671830Y1029970D01*
X650240Y995680D02*
X744220D01*
X880110Y1113790D02*
X885190Y1108710D01*
X930910D01*
X876300Y1108867D02*
Y1201263D01*
X884077Y1101090D02*
X927100D01*
X880110Y1113790D02*
Y1202841D01*
X824934Y1258016D02*
X880110Y1202841D01*
X876300Y1108867D02*
X884077Y1101090D01*
X823356Y1254206D02*
X876300Y1201263D01*
X887730Y884777D02*
Y1069340D01*
Y884777D02*
X901700Y870807D01*
X877590Y1066800D02*
X878215Y1066175D01*
Y635625D02*
Y1066175D01*
Y635625D02*
X878840Y635000D01*
X956310Y1117600D02*
X1131570Y1292860D01*
X877570Y1214120D02*
X967740D01*
X886460Y1205230D02*
X967740D01*
X972900Y1059407D02*
X975587D01*
X970153Y1056660D02*
X972900Y1059407D01*
X928370Y1019810D02*
Y1024890D01*
X1236980Y1333500D02*
Y1598930D01*
X968873Y1056660D02*
X970153D01*
X928370Y1024890D02*
X1236980Y1333500D01*
X975587Y1059407D02*
X1272540Y1356360D01*
Y1611630D01*
X981710Y1050290D02*
X1295400Y1363980D01*
Y1633220D01*
X981710Y1032510D02*
Y1050290D01*
X125730Y1379220D02*
X147320Y1357630D01*
X332740D01*
X354330Y1336040D01*
X773430Y1290320D02*
X774065Y1290955D01*
X946785D01*
X947420Y1291590D01*
X943041Y1282700D02*
X945581Y1280160D01*
X946150D01*
X918210Y1282700D02*
X943041D01*
X768350Y1299210D02*
X944880D01*
X951230Y1305560D01*
X339090Y1369060D02*
X367030Y1341120D01*
X228600Y1395730D02*
X255270Y1369060D01*
X339090D01*
X240030Y1670050D02*
X369570Y1540510D01*
X190500Y1670050D02*
X240030D01*
X977900Y1324610D02*
X1000760Y1301750D01*
X1018540D01*
X980440Y1334770D02*
X997585Y1317625D01*
X1012825D01*
X998025Y1330421D02*
X1005417D01*
X1012825Y1317625D02*
X1028700Y1301750D01*
X1005417Y1330421D02*
X1027377Y1308461D01*
X1033419D01*
X245110Y1697990D02*
X368300Y1574800D01*
X629920Y660400D02*
X650240Y640080D01*
X684530Y1102360D02*
Y1108710D01*
X690880Y1096010D02*
Y1102360D01*
X684530Y1108710D02*
X774700Y1198880D01*
X676910Y1109980D02*
X751840Y1184910D01*
X231140Y985520D02*
X364490D01*
X173990Y928370D02*
X231140Y985520D01*
X173990Y881380D02*
Y928370D01*
X93980Y877570D02*
X212250Y995840D01*
X363550D01*
X612315Y1431115D02*
Y1440180D01*
X618490Y1431290D02*
X791764Y1258016D01*
X612315Y1431115D02*
X789224Y1254206D01*
X618490Y1431290D02*
Y1449070D01*
X791764Y1258016D02*
X824934D01*
X789224Y1254206D02*
X823356D01*
X579970Y1473200D02*
X588010D01*
X200660Y1852510D02*
X579970Y1473200D01*
X200660Y1852510D02*
Y1878330D01*
X583388Y1463040D02*
X584128Y1462299D01*
X889000Y1117600D02*
X956310D01*
X693420Y1858010D02*
X977900D01*
X1236980Y1598930D01*
X852170Y2032000D02*
X1272540Y1611630D01*
X728980Y2032000D02*
X852170D01*
X698500Y2062480D02*
X728980Y2032000D01*
X864870Y2063750D02*
X1295400Y1633220D01*
X718820Y2063750D02*
X864870D01*
X588010Y2076450D02*
X904240D01*
X967740Y1018540D02*
X981710Y1032510D01*
X985520Y1037640D02*
X1320800Y1372920D01*
X969010Y975360D02*
X985520Y991870D01*
X960120Y975360D02*
X969010D01*
X1033419Y1308461D02*
X1040130Y1301750D01*
X901700Y542744D02*
Y870807D01*
X431800Y607060D02*
X588010Y763270D01*
X323850Y607060D02*
X431800D01*
X323850Y593090D02*
X432169D01*
X587854Y748775D01*
X623864Y264909D02*
X901700Y542744D01*
X102870Y320040D02*
X103775Y320945D01*
X106315D02*
X215900Y430530D01*
X304263D01*
X103775Y320945D02*
X106315D01*
X304263Y430530D02*
X574035Y700302D01*
X292245Y407815D02*
X576580Y692150D01*
X245255Y407815D02*
X292245D01*
X171450Y334010D02*
X245255Y407815D01*
D57*
X767080Y532130D02*
D03*
D58*
X795800Y1315360D02*
D03*
X770400D02*
D03*
X847090Y541020D02*
D03*
Y566420D02*
D03*
X692150Y270510D02*
D03*
X717550D02*
D03*
X774700D02*
D03*
X800100D02*
D03*
X857250D02*
D03*
X882650D02*
D03*
X939800D02*
D03*
X965200D02*
D03*
X1022350D02*
D03*
X1047750D02*
D03*
X1104900D02*
D03*
X1130300D02*
D03*
X1212850D02*
D03*
X1187450D02*
D03*
X1295400D02*
D03*
X1270000D02*
D03*
X1377950D02*
D03*
X1352550D02*
D03*
X1460500D02*
D03*
X1435100D02*
D03*
X1625600D02*
D03*
X1600200D02*
D03*
X1543050D02*
D03*
X1517650D02*
D03*
X1170940Y1126490D02*
D03*
Y1101090D02*
D03*
X941070Y895350D02*
D03*
Y869950D02*
D03*
X95250Y2118360D02*
D03*
X69850D02*
D03*
X166370Y1320800D02*
D03*
X140970D02*
D03*
X95250D02*
D03*
X69850D02*
D03*
Y226220D02*
D03*
X95250D02*
D03*
X166370D02*
D03*
X140970D02*
D03*
X168910Y1060450D02*
D03*
X143510D02*
D03*
X95250D02*
D03*
X69850D02*
D03*
X95250Y513240D02*
D03*
X69850D02*
D03*
X166370D02*
D03*
X140970D02*
D03*
X166370Y769620D02*
D03*
X140970D02*
D03*
X95250D02*
D03*
X69850D02*
D03*
X717080Y532130D02*
D03*
X767080Y677130D02*
D03*
X742080D02*
D03*
X717080D02*
D03*
X140970Y2118360D02*
D03*
X166370D02*
D03*
X140970Y1847850D02*
D03*
X166370D02*
D03*
X69850D02*
D03*
X95250D02*
D03*
X140970Y1596390D02*
D03*
X166370D02*
D03*
X69850D02*
D03*
X95250D02*
D03*
D59*
X799080Y602130D02*
D03*
X685080D02*
D03*
D61*
X600710Y264160D02*
Y1516380D01*
X967740Y1205230D02*
Y1214120D01*
Y1369060D01*
X1092200Y1299210D02*
X1093470Y1300480D01*
Y1361440D01*
X1085850Y1369060D02*
X1093470Y1361440D01*
X967740Y1369060D02*
X1085850D01*
X967740Y1516380D02*
X1102360D01*
X967740Y1369060D02*
Y1516380D01*
Y1153160D02*
Y1205230D01*
X980440Y1165860D02*
X981710D01*
X967740Y1153160D02*
X980440Y1165860D01*
X941070Y1126490D02*
X967740Y1153160D01*
X594360Y257810D02*
X600710Y264160D01*
Y1516380D02*
X967740D01*
X570230Y1546860D02*
Y1582420D01*
Y1878330D01*
Y1546860D02*
X600710Y1516380D01*
X570230Y1878330D02*
Y2091690D01*
D62*
X1442720Y2280920D02*
D03*
X1372720D02*
D03*
D63*
X1432720Y2253920D02*
D03*
X1382720D02*
D03*
D64*
X44000Y1755648D02*
D03*
Y2028698D02*
D03*
Y1505458D02*
D03*
Y1228598D02*
D03*
Y416560D02*
D03*
Y970280D02*
D03*
Y675640D02*
D03*
Y132080D02*
D03*
D65*
X89000Y1755648D02*
D03*
Y2028698D02*
D03*
Y1505458D02*
D03*
Y1228598D02*
D03*
Y416560D02*
D03*
Y970280D02*
D03*
Y675640D02*
D03*
Y132080D02*
D03*
D66*
X326390Y315120D02*
D03*
X300990D02*
D03*
X275590D02*
D03*
X250190D02*
D03*
X326390Y238920D02*
D03*
X300990D02*
D03*
X275590D02*
D03*
X250190Y858520D02*
D03*
X326390D02*
D03*
X300990D02*
D03*
X275590D02*
D03*
X326390Y782320D02*
D03*
X300990D02*
D03*
X275590D02*
D03*
X246380Y1927860D02*
D03*
X251460Y1404620D02*
D03*
X327660D02*
D03*
X302260D02*
D03*
X276860D02*
D03*
X327660Y1328420D02*
D03*
X302260D02*
D03*
X276860D02*
D03*
X271780Y1851660D02*
D03*
X297180D02*
D03*
X322580D02*
D03*
X271780Y1927860D02*
D03*
X297180D02*
D03*
X322580D02*
D03*
D67*
X250190Y238920D02*
D03*
Y782320D02*
D03*
X251460Y1328420D02*
D03*
X246380Y1851660D02*
D03*
D68*
X285750Y2002790D02*
D03*
X361950D02*
D03*
X234950Y2028190D02*
D03*
Y2002790D02*
D03*
X252730Y134780D02*
D03*
Y160180D02*
D03*
X292100Y160020D02*
D03*
X368300D02*
D03*
X295910Y948690D02*
D03*
X372110D02*
D03*
X252730Y972820D02*
D03*
Y947420D02*
D03*
X240030Y678180D02*
D03*
Y703580D02*
D03*
X292100D02*
D03*
X368300D02*
D03*
X240030Y1781810D02*
D03*
Y1756410D02*
D03*
X361950Y1781810D02*
D03*
X285750D02*
D03*
X245110Y1480820D02*
D03*
Y1506220D02*
D03*
X229870Y1257300D02*
D03*
Y1231900D02*
D03*
X386080Y1480820D02*
D03*
X309880D02*
D03*
X363220Y1257300D02*
D03*
X287020D02*
D03*
X252730Y392590D02*
D03*
Y417990D02*
D03*
X375920Y392430D02*
D03*
X299720D02*
D03*
D69*
X1068578Y1708404D02*
D03*
X1093978Y2265680D02*
D03*
D70*
Y1708404D02*
D03*
X1068578Y2265680D02*
D03*
D71*
X998220Y1149350D02*
D03*
X943610Y1075690D02*
D03*
X808990Y1159510D02*
D03*
X1050290Y1165860D02*
D03*
X1087120Y1234440D02*
D03*
X1104900Y1299210D02*
D03*
Y1245870D02*
D03*
X996950Y1240790D02*
D03*
X930910Y1108710D02*
D03*
X864870Y1042670D02*
D03*
X1047750Y1070610D02*
D03*
X1061720Y1043940D02*
D03*
X116840Y1922780D02*
D03*
X200660Y1878330D02*
D03*
X119380Y1174750D02*
D03*
X946150Y991870D02*
D03*
X964872Y999770D02*
D03*
X57150Y2161540D02*
D03*
X586740D02*
D03*
X791977Y1101467D02*
D03*
X792480Y1148080D02*
D03*
X797560Y1214120D02*
D03*
X867410Y1277620D02*
D03*
X1136650Y1028700D02*
D03*
X1108710Y1106170D02*
D03*
X1080770Y1309370D02*
D03*
X734060Y843280D02*
D03*
X1254799Y1468122D02*
D03*
X1033780Y1160780D02*
D03*
X425450Y185420D02*
D03*
X550117Y185966D02*
D03*
X525083Y296805D02*
D03*
X425450Y417830D02*
D03*
X546126Y417531D02*
D03*
X538480Y513080D02*
D03*
X342900Y1206500D02*
D03*
X600411Y1051220D02*
D03*
X509270Y1089660D02*
D03*
X410210Y972820D02*
D03*
X534670D02*
D03*
X509270Y842010D02*
D03*
X514350Y749300D02*
D03*
X408940Y728980D02*
D03*
X508000Y1619250D02*
D03*
X410210Y1506220D02*
D03*
X491490D02*
D03*
X506730Y1397000D02*
D03*
X537210Y1282700D02*
D03*
X406400D02*
D03*
X405130Y1807210D02*
D03*
X535940D02*
D03*
X508000Y1921510D02*
D03*
X401802Y2027740D02*
D03*
X541706Y2028225D02*
D03*
X509270Y2143760D02*
D03*
X1214120Y1579880D02*
D03*
X1019810Y1145540D02*
D03*
X659130Y1005840D02*
D03*
X362300Y1169156D02*
D03*
X330200Y1169670D02*
D03*
X638810Y1016000D02*
D03*
X356543Y1184734D02*
D03*
X661670Y1018540D02*
D03*
X650240Y995680D02*
D03*
X887730Y1069340D02*
D03*
X877590Y1066800D02*
D03*
X927100Y1101090D02*
D03*
X867410Y1201420D02*
D03*
X877570Y1214120D02*
D03*
X886460Y1205230D02*
D03*
X867410Y1181100D02*
D03*
X968873Y1056660D02*
D03*
X125730Y1379220D02*
D03*
X354330Y1336040D02*
D03*
X773430Y1290320D02*
D03*
X918210Y1282700D02*
D03*
X947420Y1291590D02*
D03*
X228600Y1395730D02*
D03*
X367030Y1341120D02*
D03*
X768350Y1299210D02*
D03*
X951230Y1305560D02*
D03*
X190500Y1670050D02*
D03*
X369570Y1540510D02*
D03*
X977900Y1324610D02*
D03*
X1018540Y1301750D02*
D03*
X1028700D02*
D03*
X135890Y1697040D02*
D03*
X368300Y1574800D02*
D03*
X980440Y1334770D02*
D03*
X998025Y1330421D02*
D03*
X867410Y1169670D02*
D03*
X690880Y1096010D02*
D03*
X684530Y1102360D02*
D03*
X773430Y1184910D02*
D03*
X637540Y1003300D02*
D03*
X774700Y1198880D02*
D03*
X751840Y1184910D02*
D03*
X676910Y1109980D02*
D03*
X364490Y985520D02*
D03*
X173990Y881380D02*
D03*
X93980Y877570D02*
D03*
X363550Y995840D02*
D03*
X612315Y1440180D02*
D03*
X889000Y1117600D02*
D03*
X618490Y1449070D02*
D03*
X588010Y1473200D02*
D03*
X584128Y1462299D02*
D03*
X1092200Y1299210D02*
D03*
X1131570Y1311910D02*
D03*
X600710Y748030D02*
D03*
X928370Y1019810D02*
D03*
X693420Y1858010D02*
D03*
X698500Y2062480D02*
D03*
X718820Y2063750D02*
D03*
X967740Y1018540D02*
D03*
X1102360Y1516380D02*
D03*
X588010Y2076450D02*
D03*
X960120Y975360D02*
D03*
X1040130Y1301750D02*
D03*
X946150Y1280160D02*
D03*
X878840Y635000D02*
D03*
X588010Y763270D02*
D03*
X323850Y607060D02*
D03*
X587854Y748775D02*
D03*
X323850Y593090D02*
D03*
X650240Y640080D02*
D03*
X102870Y320040D02*
D03*
X574035Y700302D02*
D03*
X610870Y736600D02*
D03*
X801370Y1230630D02*
D03*
X789940Y1223010D02*
D03*
X619760Y732790D02*
D03*
X576580Y692150D02*
D03*
X171450Y334010D02*
D03*
X623864Y264909D02*
D03*
X981710Y1165860D02*
D03*
X941070Y1126490D02*
D03*
X600710Y1358900D02*
D03*
Y801370D02*
D03*
Y490220D02*
D03*
X594360Y257810D02*
D03*
X570230Y1582420D02*
D03*
Y1878330D02*
D03*
Y2091690D02*
D03*
X1122680Y1154430D02*
D03*
M02*
