G04*
G04 #@! TF.GenerationSoftware,Altium Limited,Altium Designer,25.3.3 (18)*
G04*
G04 Layer_Color=16711935*
%FSLAX44Y44*%
%MOMM*%
G71*
G04*
G04 #@! TF.SameCoordinates,B03FB70F-F8BE-43E9-B780-EF2A816BF6E4*
G04*
G04*
G04 #@! TF.FilePolarity,Positive*
G04*
G01*
G75*
%ADD13C,0.2540*%
%ADD72C,0.1000*%
D13*
X-1270Y0D02*
X1270D01*
X-1270Y2299368D02*
X-1270Y0D01*
X-1270Y2299368D02*
X1699928D01*
Y0D02*
Y2299368D01*
X1270Y0D02*
X1699928D01*
D72*
X1363070Y2295420D02*
X1454720D01*
X4000Y1689648D02*
Y1815648D01*
Y1962698D02*
Y2088698D01*
Y1439458D02*
Y1565458D01*
Y1162598D02*
Y1288598D01*
Y350560D02*
Y476560D01*
Y904280D02*
Y1030280D01*
Y609640D02*
Y735640D01*
Y66080D02*
Y192080D01*
X1479720Y2296420D02*
Y2293421D01*
X1478220D01*
X1477721Y2293921D01*
Y2294921D01*
X1478220Y2295420D01*
X1479720D01*
X1474722Y2293921D02*
X1475221Y2293421D01*
X1476221D01*
X1476721Y2293921D01*
Y2295920D01*
X1476221Y2296420D01*
X1475221D01*
X1474722Y2295920D01*
X1473722Y2293421D02*
Y2296420D01*
X1472222D01*
X1471723Y2295920D01*
Y2295420D01*
X1472222Y2294921D01*
X1473722D01*
X1472222D01*
X1471723Y2294421D01*
Y2293921D01*
X1472222Y2293421D01*
X1473722D01*
X1465724D02*
X1467724D01*
Y2296420D01*
X1465724D01*
X1467724Y2294921D02*
X1466724D01*
X1464725Y2293421D02*
Y2296420D01*
X1463225D01*
X1462725Y2295920D01*
Y2293921D01*
X1463225Y2293421D01*
X1464725D01*
X1459726Y2293921D02*
X1460226Y2293421D01*
X1461226D01*
X1461726Y2293921D01*
Y2295920D01*
X1461226Y2296420D01*
X1460226D01*
X1459726Y2295920D01*
Y2294921D01*
X1460726D01*
X1456727Y2293421D02*
X1458727D01*
Y2296420D01*
X1456727D01*
X1458727Y2294921D02*
X1457727D01*
X5900Y1693418D02*
Y1699416D01*
X8899D01*
X9899Y1698416D01*
Y1696417D01*
X8899Y1695417D01*
X5900D01*
X15897Y1698416D02*
X14897Y1699416D01*
X12898D01*
X11898Y1698416D01*
Y1694418D01*
X12898Y1693418D01*
X14897D01*
X15897Y1694418D01*
X17896Y1699416D02*
Y1693418D01*
X20895D01*
X21895Y1694418D01*
Y1695417D01*
X20895Y1696417D01*
X17896D01*
X20895D01*
X21895Y1697417D01*
Y1698416D01*
X20895Y1699416D01*
X17896D01*
X33891D02*
X29892D01*
Y1693418D01*
X33891D01*
X29892Y1696417D02*
X31892D01*
X39889Y1699416D02*
Y1693418D01*
X36890D01*
X35890Y1694418D01*
Y1696417D01*
X36890Y1697417D01*
X39889D01*
X43888Y1691419D02*
X44887D01*
X45887Y1692418D01*
Y1697417D01*
X42888D01*
X41888Y1696417D01*
Y1694418D01*
X42888Y1693418D01*
X45887D01*
X50885D02*
X48886D01*
X47886Y1694418D01*
Y1696417D01*
X48886Y1697417D01*
X50885D01*
X51885Y1696417D01*
Y1695417D01*
X47886D01*
X7170Y1965198D02*
Y1971196D01*
X10169D01*
X11169Y1970196D01*
Y1968197D01*
X10169Y1967197D01*
X7170D01*
X17167Y1970196D02*
X16167Y1971196D01*
X14168D01*
X13168Y1970196D01*
Y1966198D01*
X14168Y1965198D01*
X16167D01*
X17167Y1966198D01*
X19166Y1971196D02*
Y1965198D01*
X22165D01*
X23165Y1966198D01*
Y1967197D01*
X22165Y1968197D01*
X19166D01*
X22165D01*
X23165Y1969197D01*
Y1970196D01*
X22165Y1971196D01*
X19166D01*
X35161D02*
X31162D01*
Y1965198D01*
X35161D01*
X31162Y1968197D02*
X33162D01*
X41159Y1971196D02*
Y1965198D01*
X38160D01*
X37160Y1966198D01*
Y1968197D01*
X38160Y1969197D01*
X41159D01*
X45158Y1963199D02*
X46157D01*
X47157Y1964198D01*
Y1969197D01*
X44158D01*
X43158Y1968197D01*
Y1966198D01*
X44158Y1965198D01*
X47157D01*
X52155D02*
X50156D01*
X49156Y1966198D01*
Y1968197D01*
X50156Y1969197D01*
X52155D01*
X53155Y1968197D01*
Y1967197D01*
X49156D01*
X7170Y1444498D02*
Y1450496D01*
X10169D01*
X11169Y1449496D01*
Y1447497D01*
X10169Y1446497D01*
X7170D01*
X17167Y1449496D02*
X16167Y1450496D01*
X14168D01*
X13168Y1449496D01*
Y1445498D01*
X14168Y1444498D01*
X16167D01*
X17167Y1445498D01*
X19166Y1450496D02*
Y1444498D01*
X22165D01*
X23165Y1445498D01*
Y1446497D01*
X22165Y1447497D01*
X19166D01*
X22165D01*
X23165Y1448497D01*
Y1449496D01*
X22165Y1450496D01*
X19166D01*
X35161D02*
X31162D01*
Y1444498D01*
X35161D01*
X31162Y1447497D02*
X33162D01*
X41159Y1450496D02*
Y1444498D01*
X38160D01*
X37160Y1445498D01*
Y1447497D01*
X38160Y1448497D01*
X41159D01*
X45158Y1442499D02*
X46157D01*
X47157Y1443498D01*
Y1448497D01*
X44158D01*
X43158Y1447497D01*
Y1445498D01*
X44158Y1444498D01*
X47157D01*
X52155D02*
X50156D01*
X49156Y1445498D01*
Y1447497D01*
X50156Y1448497D01*
X52155D01*
X53155Y1447497D01*
Y1446497D01*
X49156D01*
X7170Y1168908D02*
Y1174906D01*
X10169D01*
X11169Y1173906D01*
Y1171907D01*
X10169Y1170907D01*
X7170D01*
X17167Y1173906D02*
X16167Y1174906D01*
X14168D01*
X13168Y1173906D01*
Y1169908D01*
X14168Y1168908D01*
X16167D01*
X17167Y1169908D01*
X19166Y1174906D02*
Y1168908D01*
X22165D01*
X23165Y1169908D01*
Y1170907D01*
X22165Y1171907D01*
X19166D01*
X22165D01*
X23165Y1172907D01*
Y1173906D01*
X22165Y1174906D01*
X19166D01*
X35161D02*
X31162D01*
Y1168908D01*
X35161D01*
X31162Y1171907D02*
X33162D01*
X41159Y1174906D02*
Y1168908D01*
X38160D01*
X37160Y1169908D01*
Y1171907D01*
X38160Y1172907D01*
X41159D01*
X45158Y1166909D02*
X46157D01*
X47157Y1167908D01*
Y1172907D01*
X44158D01*
X43158Y1171907D01*
Y1169908D01*
X44158Y1168908D01*
X47157D01*
X52155D02*
X50156D01*
X49156Y1169908D01*
Y1171907D01*
X50156Y1172907D01*
X52155D01*
X53155Y1171907D01*
Y1170907D01*
X49156D01*
X5900Y356870D02*
Y362868D01*
X8899D01*
X9899Y361868D01*
Y359869D01*
X8899Y358869D01*
X5900D01*
X15897Y361868D02*
X14897Y362868D01*
X12898D01*
X11898Y361868D01*
Y357870D01*
X12898Y356870D01*
X14897D01*
X15897Y357870D01*
X17896Y362868D02*
Y356870D01*
X20895D01*
X21895Y357870D01*
Y358869D01*
X20895Y359869D01*
X17896D01*
X20895D01*
X21895Y360869D01*
Y361868D01*
X20895Y362868D01*
X17896D01*
X33891D02*
X29892D01*
Y356870D01*
X33891D01*
X29892Y359869D02*
X31892D01*
X39889Y362868D02*
Y356870D01*
X36890D01*
X35890Y357870D01*
Y359869D01*
X36890Y360869D01*
X39889D01*
X43888Y354871D02*
X44887D01*
X45887Y355870D01*
Y360869D01*
X42888D01*
X41888Y359869D01*
Y357870D01*
X42888Y356870D01*
X45887D01*
X50885D02*
X48886D01*
X47886Y357870D01*
Y359869D01*
X48886Y360869D01*
X50885D01*
X51885Y359869D01*
Y358869D01*
X47886D01*
X5900Y909320D02*
Y915318D01*
X8899D01*
X9899Y914318D01*
Y912319D01*
X8899Y911319D01*
X5900D01*
X15897Y914318D02*
X14897Y915318D01*
X12898D01*
X11898Y914318D01*
Y910320D01*
X12898Y909320D01*
X14897D01*
X15897Y910320D01*
X17896Y915318D02*
Y909320D01*
X20895D01*
X21895Y910320D01*
Y911319D01*
X20895Y912319D01*
X17896D01*
X20895D01*
X21895Y913319D01*
Y914318D01*
X20895Y915318D01*
X17896D01*
X33891D02*
X29892D01*
Y909320D01*
X33891D01*
X29892Y912319D02*
X31892D01*
X39889Y915318D02*
Y909320D01*
X36890D01*
X35890Y910320D01*
Y912319D01*
X36890Y913319D01*
X39889D01*
X43888Y907321D02*
X44887D01*
X45887Y908320D01*
Y913319D01*
X42888D01*
X41888Y912319D01*
Y910320D01*
X42888Y909320D01*
X45887D01*
X50885D02*
X48886D01*
X47886Y910320D01*
Y912319D01*
X48886Y913319D01*
X50885D01*
X51885Y912319D01*
Y911319D01*
X47886D01*
X4630Y614680D02*
Y620678D01*
X7629D01*
X8629Y619678D01*
Y617679D01*
X7629Y616679D01*
X4630D01*
X14627Y619678D02*
X13627Y620678D01*
X11628D01*
X10628Y619678D01*
Y615680D01*
X11628Y614680D01*
X13627D01*
X14627Y615680D01*
X16626Y620678D02*
Y614680D01*
X19625D01*
X20625Y615680D01*
Y616679D01*
X19625Y617679D01*
X16626D01*
X19625D01*
X20625Y618679D01*
Y619678D01*
X19625Y620678D01*
X16626D01*
X32621D02*
X28622D01*
Y614680D01*
X32621D01*
X28622Y617679D02*
X30622D01*
X38619Y620678D02*
Y614680D01*
X35620D01*
X34620Y615680D01*
Y617679D01*
X35620Y618679D01*
X38619D01*
X42618Y612681D02*
X43617D01*
X44617Y613680D01*
Y618679D01*
X41618D01*
X40618Y617679D01*
Y615680D01*
X41618Y614680D01*
X44617D01*
X49615D02*
X47616D01*
X46616Y615680D01*
Y617679D01*
X47616Y618679D01*
X49615D01*
X50615Y617679D01*
Y616679D01*
X46616D01*
X3360Y69850D02*
Y75848D01*
X6359D01*
X7359Y74848D01*
Y72849D01*
X6359Y71849D01*
X3360D01*
X13357Y74848D02*
X12357Y75848D01*
X10358D01*
X9358Y74848D01*
Y70850D01*
X10358Y69850D01*
X12357D01*
X13357Y70850D01*
X15356Y75848D02*
Y69850D01*
X18355D01*
X19355Y70850D01*
Y71849D01*
X18355Y72849D01*
X15356D01*
X18355D01*
X19355Y73849D01*
Y74848D01*
X18355Y75848D01*
X15356D01*
X31351D02*
X27352D01*
Y69850D01*
X31351D01*
X27352Y72849D02*
X29352D01*
X37349Y75848D02*
Y69850D01*
X34350D01*
X33350Y70850D01*
Y72849D01*
X34350Y73849D01*
X37349D01*
X41348Y67851D02*
X42347D01*
X43347Y68850D01*
Y73849D01*
X40348D01*
X39348Y72849D01*
Y70850D01*
X40348Y69850D01*
X43347D01*
X48345D02*
X46346D01*
X45346Y70850D01*
Y72849D01*
X46346Y73849D01*
X48345D01*
X49345Y72849D01*
Y71849D01*
X45346D01*
M02*
