G04*
G04 #@! TF.GenerationSoftware,Altium Limited,Altium Designer,25.3.3 (18)*
G04*
G04 Layer_Color=16711935*
%FSLAX44Y44*%
%MOMM*%
G71*
G04*
G04 #@! TF.SameCoordinates,B03FB70F-F8BE-43E9-B780-EF2A816BF6E4*
G04*
G04*
G04 #@! TF.FilePolarity,Negative*
G04*
G01*
G75*
G04:AMPARAMS|DCode=46|XSize=1.674mm|YSize=0.912mm|CornerRadius=0mm|HoleSize=0mm|Usage=FLASHONLY|Rotation=270.000|XOffset=0mm|YOffset=0mm|HoleType=Round|Shape=RoundedRectangle|*
%AMROUNDEDRECTD46*
21,1,1.6740,0.9120,0,0,270.0*
21,1,1.6740,0.9120,0,0,270.0*
1,1,0.0000,-0.4560,-0.8370*
1,1,0.0000,-0.4560,0.8370*
1,1,0.0000,0.4560,0.8370*
1,1,0.0000,0.4560,-0.8370*
%
%ADD46ROUNDEDRECTD46*%
%ADD47C,1.6000*%
%ADD48C,0.1500*%
%ADD49O,1.9500X4.0500*%
%ADD50O,2.9500X1.6500*%
%ADD51C,1.7000*%
%ADD52C,1.6500*%
%ADD53R,1.6500X1.6500*%
%ADD54C,1.5500*%
%ADD55R,1.7500X1.7500*%
%ADD56C,1.7500*%
%ADD57R,1.5500X1.5500*%
%ADD58C,1.5500*%
G04:AMPARAMS|DCode=59|XSize=2.4mm|YSize=5mm|CornerRadius=1.2mm|HoleSize=0mm|Usage=FLASHONLY|Rotation=180.000|XOffset=0mm|YOffset=0mm|HoleType=Round|Shape=RoundedRectangle|*
%AMROUNDEDRECTD59*
21,1,2.4000,2.6000,0,0,180.0*
21,1,0.0000,5.0000,0,0,180.0*
1,1,2.4000,0.0000,1.3000*
1,1,2.4000,0.0000,1.3000*
1,1,2.4000,0.0000,-1.3000*
1,1,2.4000,0.0000,-1.3000*
%
%ADD59ROUNDEDRECTD59*%
%ADD60C,0.7500*%
D46*
X1442720Y2280920D02*
D03*
X1372720D02*
D03*
D47*
X1432720Y2253920D02*
D03*
X1382720D02*
D03*
D48*
X1550500Y2200000D02*
D03*
Y100000D02*
D03*
X150000Y2200000D02*
D03*
Y100000D02*
D03*
D49*
X44000Y1755648D02*
D03*
Y2028698D02*
D03*
Y1505458D02*
D03*
Y1228598D02*
D03*
Y416560D02*
D03*
Y970280D02*
D03*
Y675640D02*
D03*
Y132080D02*
D03*
D50*
X89000Y1755648D02*
D03*
Y2028698D02*
D03*
Y1505458D02*
D03*
Y1228598D02*
D03*
Y416560D02*
D03*
Y970280D02*
D03*
Y675640D02*
D03*
Y132080D02*
D03*
D51*
X795800Y1315360D02*
D03*
X770400D02*
D03*
X847090Y541020D02*
D03*
Y566420D02*
D03*
X692150Y270510D02*
D03*
X717550D02*
D03*
X774700D02*
D03*
X800100D02*
D03*
X857250D02*
D03*
X882650D02*
D03*
X939800D02*
D03*
X965200D02*
D03*
X1022350D02*
D03*
X1047750D02*
D03*
X1104900D02*
D03*
X1130300D02*
D03*
X1212850D02*
D03*
X1187450D02*
D03*
X1295400D02*
D03*
X1270000D02*
D03*
X1377950D02*
D03*
X1352550D02*
D03*
X1460500D02*
D03*
X1435100D02*
D03*
X1625600D02*
D03*
X1600200D02*
D03*
X1543050D02*
D03*
X1517650D02*
D03*
X1170940Y1126490D02*
D03*
Y1101090D02*
D03*
X941070Y895350D02*
D03*
Y869950D02*
D03*
X95250Y2118360D02*
D03*
X69850D02*
D03*
X166370Y1320800D02*
D03*
X140970D02*
D03*
X95250D02*
D03*
X69850D02*
D03*
Y226220D02*
D03*
X95250D02*
D03*
X166370D02*
D03*
X140970D02*
D03*
X168910Y1060450D02*
D03*
X143510D02*
D03*
X95250D02*
D03*
X69850D02*
D03*
X95250Y513240D02*
D03*
X69850D02*
D03*
X166370D02*
D03*
X140970D02*
D03*
X166370Y769620D02*
D03*
X140970D02*
D03*
X95250D02*
D03*
X69850D02*
D03*
X140970Y2118360D02*
D03*
X166370D02*
D03*
X140970Y1847850D02*
D03*
X166370D02*
D03*
X69850D02*
D03*
X95250D02*
D03*
X140970Y1596390D02*
D03*
X166370D02*
D03*
X69850D02*
D03*
X95250D02*
D03*
D52*
X326390Y315120D02*
D03*
X300990D02*
D03*
X275590D02*
D03*
X250190D02*
D03*
X326390Y238920D02*
D03*
X300990D02*
D03*
X275590D02*
D03*
X250190Y858520D02*
D03*
X326390D02*
D03*
X300990D02*
D03*
X275590D02*
D03*
X326390Y782320D02*
D03*
X300990D02*
D03*
X275590D02*
D03*
X246380Y1927860D02*
D03*
X251460Y1404620D02*
D03*
X327660D02*
D03*
X302260D02*
D03*
X276860D02*
D03*
X327660Y1328420D02*
D03*
X302260D02*
D03*
X276860D02*
D03*
X271780Y1851660D02*
D03*
X297180D02*
D03*
X322580D02*
D03*
X271780Y1927860D02*
D03*
X297180D02*
D03*
X322580D02*
D03*
D53*
X250190Y238920D02*
D03*
Y782320D02*
D03*
X251460Y1328420D02*
D03*
X246380Y1851660D02*
D03*
D54*
X285750Y2002790D02*
D03*
X361950D02*
D03*
X234950Y2028190D02*
D03*
Y2002790D02*
D03*
X252730Y134780D02*
D03*
Y160180D02*
D03*
X292100Y160020D02*
D03*
X368300D02*
D03*
X295910Y948690D02*
D03*
X372110D02*
D03*
X252730Y972820D02*
D03*
Y947420D02*
D03*
X240030Y678180D02*
D03*
Y703580D02*
D03*
X292100D02*
D03*
X368300D02*
D03*
X240030Y1781810D02*
D03*
Y1756410D02*
D03*
X361950Y1781810D02*
D03*
X285750D02*
D03*
X245110Y1480820D02*
D03*
Y1506220D02*
D03*
X229870Y1257300D02*
D03*
Y1231900D02*
D03*
X386080Y1480820D02*
D03*
X309880D02*
D03*
X363220Y1257300D02*
D03*
X287020D02*
D03*
X252730Y392590D02*
D03*
Y417990D02*
D03*
X375920Y392430D02*
D03*
X299720D02*
D03*
D55*
X1068578Y1708404D02*
D03*
X1093978Y2265680D02*
D03*
D56*
Y1708404D02*
D03*
X1068578Y2265680D02*
D03*
D57*
X767080Y532130D02*
D03*
D58*
X717080D02*
D03*
X767080Y677130D02*
D03*
X742080D02*
D03*
X717080D02*
D03*
D59*
X799080Y602130D02*
D03*
X685080D02*
D03*
D60*
X998220Y1149350D02*
D03*
X943610Y1075690D02*
D03*
X808990Y1159510D02*
D03*
X1050290Y1165860D02*
D03*
X1087120Y1234440D02*
D03*
X1104900Y1299210D02*
D03*
Y1245870D02*
D03*
X996950Y1240790D02*
D03*
X930910Y1108710D02*
D03*
X864870Y1042670D02*
D03*
X1047750Y1070610D02*
D03*
X1061720Y1043940D02*
D03*
X116840Y1922780D02*
D03*
X200660Y1878330D02*
D03*
X119380Y1174750D02*
D03*
X946150Y991870D02*
D03*
X964872Y999770D02*
D03*
X57150Y2161540D02*
D03*
X586740D02*
D03*
X791977Y1101467D02*
D03*
X792480Y1148080D02*
D03*
X797560Y1214120D02*
D03*
X867410Y1277620D02*
D03*
X1136650Y1028700D02*
D03*
X1108710Y1106170D02*
D03*
X1080770Y1309370D02*
D03*
X734060Y843280D02*
D03*
X1254799Y1468122D02*
D03*
X1033780Y1160780D02*
D03*
X425450Y185420D02*
D03*
X550117Y185966D02*
D03*
X525083Y296805D02*
D03*
X425450Y417830D02*
D03*
X546126Y417531D02*
D03*
X538480Y513080D02*
D03*
X342900Y1206500D02*
D03*
X600411Y1051220D02*
D03*
X509270Y1089660D02*
D03*
X410210Y972820D02*
D03*
X534670D02*
D03*
X509270Y842010D02*
D03*
X514350Y749300D02*
D03*
X408940Y728980D02*
D03*
X508000Y1619250D02*
D03*
X410210Y1506220D02*
D03*
X491490D02*
D03*
X506730Y1397000D02*
D03*
X537210Y1282700D02*
D03*
X406400D02*
D03*
X405130Y1807210D02*
D03*
X535940D02*
D03*
X508000Y1921510D02*
D03*
X401802Y2027740D02*
D03*
X541706Y2028225D02*
D03*
X509270Y2143760D02*
D03*
X1214120Y1579880D02*
D03*
X1019810Y1145540D02*
D03*
X659130Y1005840D02*
D03*
X362300Y1169156D02*
D03*
X330200Y1169670D02*
D03*
X638810Y1016000D02*
D03*
X356543Y1184734D02*
D03*
X661670Y1018540D02*
D03*
X650240Y995680D02*
D03*
X887730Y1069340D02*
D03*
X877590Y1066800D02*
D03*
X927100Y1101090D02*
D03*
X867410Y1201420D02*
D03*
X877570Y1214120D02*
D03*
X886460Y1205230D02*
D03*
X867410Y1181100D02*
D03*
X968873Y1056660D02*
D03*
X125730Y1379220D02*
D03*
X354330Y1336040D02*
D03*
X773430Y1290320D02*
D03*
X918210Y1282700D02*
D03*
X947420Y1291590D02*
D03*
X228600Y1395730D02*
D03*
X367030Y1341120D02*
D03*
X768350Y1299210D02*
D03*
X951230Y1305560D02*
D03*
X190500Y1670050D02*
D03*
X369570Y1540510D02*
D03*
X977900Y1324610D02*
D03*
X1018540Y1301750D02*
D03*
X1028700D02*
D03*
X135890Y1697040D02*
D03*
X368300Y1574800D02*
D03*
X980440Y1334770D02*
D03*
X998025Y1330421D02*
D03*
X867410Y1169670D02*
D03*
X690880Y1096010D02*
D03*
X684530Y1102360D02*
D03*
X773430Y1184910D02*
D03*
X637540Y1003300D02*
D03*
X774700Y1198880D02*
D03*
X751840Y1184910D02*
D03*
X676910Y1109980D02*
D03*
X364490Y985520D02*
D03*
X173990Y881380D02*
D03*
X93980Y877570D02*
D03*
X363550Y995840D02*
D03*
X612315Y1440180D02*
D03*
X889000Y1117600D02*
D03*
X618490Y1449070D02*
D03*
X588010Y1473200D02*
D03*
X584128Y1462299D02*
D03*
X1092200Y1299210D02*
D03*
X1131570Y1311910D02*
D03*
X600710Y748030D02*
D03*
X928370Y1019810D02*
D03*
X693420Y1858010D02*
D03*
X698500Y2062480D02*
D03*
X718820Y2063750D02*
D03*
X967740Y1018540D02*
D03*
X1102360Y1516380D02*
D03*
X588010Y2076450D02*
D03*
X960120Y975360D02*
D03*
X1040130Y1301750D02*
D03*
X946150Y1280160D02*
D03*
X878840Y635000D02*
D03*
X588010Y763270D02*
D03*
X323850Y607060D02*
D03*
X587854Y748775D02*
D03*
X323850Y593090D02*
D03*
X650240Y640080D02*
D03*
X102870Y320040D02*
D03*
X574035Y700302D02*
D03*
X610870Y736600D02*
D03*
X801370Y1230630D02*
D03*
X789940Y1223010D02*
D03*
X619760Y732790D02*
D03*
X576580Y692150D02*
D03*
X171450Y334010D02*
D03*
X623864Y264909D02*
D03*
X981710Y1165860D02*
D03*
X941070Y1126490D02*
D03*
X600710Y1358900D02*
D03*
Y801370D02*
D03*
Y490220D02*
D03*
X594360Y257810D02*
D03*
X570230Y1582420D02*
D03*
Y1878330D02*
D03*
Y2091690D02*
D03*
X1122680Y1154430D02*
D03*
M02*
