G04*
G04 #@! TF.GenerationSoftware,Altium Limited,Altium Designer,25.3.3 (18)*
G04*
G04 Layer_Color=0*
%FSLAX44Y44*%
%MOMM*%
G71*
G04*
G04 #@! TF.SameCoordinates,B03FB70F-F8BE-43E9-B780-EF2A816BF6E4*
G04*
G04*
G04 #@! TF.FilePolarity,Positive*
G04*
G01*
G75*
%ADD72C,0.1000*%
D72*
X960120Y1145620D02*
Y1155620D01*
X955120Y1150620D02*
X965120D01*
X1080770Y1383090D02*
Y1393090D01*
X1075770Y1388090D02*
X1085770D01*
X985854Y1301750D02*
X995854D01*
X990854Y1296750D02*
Y1306750D01*
X985854Y1278890D02*
X995854D01*
X990854Y1273890D02*
Y1283890D01*
X1218920Y1460500D02*
X1228920D01*
X1223920Y1455500D02*
Y1465500D01*
X756920Y771750D02*
Y790350D01*
X747620Y781050D02*
X766220D01*
X420370Y252970D02*
Y262970D01*
X415370Y257970D02*
X425370D01*
X484760Y248310D02*
Y266910D01*
X475460Y257610D02*
X494060D01*
X398080Y2099670D02*
X408080D01*
X403080Y2094670D02*
Y2104670D01*
X459330Y2100580D02*
X477930D01*
X468630Y2091280D02*
Y2109880D01*
X411560Y488750D02*
X421560D01*
X416560Y483750D02*
Y493750D01*
X481330Y481080D02*
Y499680D01*
X472030Y490380D02*
X490630D01*
X468630Y792070D02*
Y810670D01*
X459330Y801370D02*
X477930D01*
X403860Y1045290D02*
Y1055290D01*
X398860Y1050290D02*
X408860D01*
X468630Y1040990D02*
Y1059590D01*
X459330Y1050290D02*
X477930D01*
X396320Y1879600D02*
X406320D01*
X401320Y1874600D02*
Y1884600D01*
X396320Y1356360D02*
X406320D01*
X401320Y1351360D02*
Y1361360D01*
X458060Y1880870D02*
X476660D01*
X467360Y1871570D02*
Y1890170D01*
X458060Y1581150D02*
X476660D01*
X467360Y1571850D02*
Y1590450D01*
X456790Y1356360D02*
X475390D01*
X466090Y1347060D02*
Y1365660D01*
X1245870Y1574880D02*
Y1584880D01*
X1240870Y1579880D02*
X1250870D01*
X821690Y1207850D02*
Y1217850D01*
X816690Y1212850D02*
X826690D01*
X1084660Y1116330D02*
X1094660D01*
X1089660Y1111330D02*
Y1121330D01*
X1056640Y995760D02*
Y1005760D01*
X1051640Y1000760D02*
X1061640D01*
X867410Y1013540D02*
Y1023540D01*
X862410Y1018540D02*
X872410D01*
X941150Y1014730D02*
X951150D01*
X946150Y1009730D02*
Y1019730D01*
X989330Y994490D02*
Y1004490D01*
X984330Y999490D02*
X994330D01*
X1056640Y1018620D02*
Y1028620D01*
X1051640Y1023620D02*
X1061640D01*
X1094994Y1258650D02*
Y1268650D01*
X1089994Y1263650D02*
X1099994D01*
X1094994Y1280240D02*
Y1290240D01*
X1089994Y1285240D02*
X1099994D01*
X717630Y1125220D02*
X727630D01*
X722630Y1120220D02*
Y1130220D01*
X759540Y1108830D02*
X769540D01*
X764540Y1103830D02*
Y1113830D01*
X759540Y1141610D02*
X769540D01*
X764540Y1136610D02*
Y1146610D01*
X989690Y1018620D02*
Y1028620D01*
X984690Y1023620D02*
X994690D01*
X825580Y1162050D02*
X835580D01*
X830580Y1157050D02*
Y1167050D01*
X826850Y1103630D02*
X836850D01*
X831850Y1098630D02*
Y1108630D01*
X759100Y711280D02*
Y721280D01*
X754100Y716280D02*
X764100D01*
X396320Y1581150D02*
X406320D01*
X401320Y1576150D02*
Y1586150D01*
X482680Y172880D02*
X492680D01*
X487680Y167880D02*
Y177880D01*
X467440Y960120D02*
X477440D01*
X472440Y955120D02*
Y965120D01*
X467440Y716280D02*
X477440D01*
X472440Y711280D02*
Y721280D01*
X397590Y801370D02*
X407590D01*
X402590Y796370D02*
Y806370D01*
X737080Y602130D02*
X747080D01*
X742080Y597130D02*
Y607130D01*
X472440Y2010490D02*
Y2020490D01*
X467440Y2015490D02*
X477440D01*
X471170Y1789510D02*
Y1799510D01*
X466170Y1794510D02*
X476170D01*
X471530Y1488520D02*
Y1498520D01*
X466530Y1493520D02*
X476530D01*
X471170Y1265000D02*
Y1275000D01*
X466170Y1270000D02*
X476170D01*
X485500Y400290D02*
Y410290D01*
X480500Y405290D02*
X490500D01*
M02*
